<svg width="586" height="518" viewBox="0 0 586 518" fill="none" xmlns="http://www.w3.org/2000/svg">
<path d="M286.723 517.043C439.593 517.043 563.518 499.382 563.518 477.597C563.518 455.811 439.593 438.15 286.723 438.15C133.854 438.15 9.92865 455.811 9.92865 477.597C9.92865 499.382 133.854 517.043 286.723 517.043Z" fill="#FB9C3B"/>
<path opacity="0.5" d="M286.723 517.043C439.593 517.043 563.518 499.382 563.518 477.597C563.518 455.811 439.593 438.15 286.723 438.15C133.854 438.15 9.92865 455.811 9.92865 477.597C9.92865 499.382 133.854 517.043 286.723 517.043Z" fill="white"/>
<path d="M571.862 328.209C567.223 329.438 563.044 331.996 559.839 335.568C557.037 338.561 554.599 341.876 552.576 345.443C551.208 347.7 550.073 350.039 548.979 352.405C548.268 353.951 547.721 355.879 547.05 357.643C546.079 359.216 545.108 360.83 544.315 362.335C547.215 351.872 556.625 332.613 556.748 327.142C556.939 321.179 551.277 330.042 548.049 342.188C546.244 349.057 544.874 356.032 543.946 363.073C543.617 363.703 543.33 364.291 543.07 364.852C542.482 366.069 541.484 368.134 540.157 370.842C543.07 361.952 544.123 351.406 542.373 350.093C539.829 348.206 538.912 352.829 538.926 361.391C538.677 367.505 537.67 373.565 535.93 379.432C534.33 382.592 532.538 386.079 530.624 389.759C532.634 383.357 533.797 374.139 534.891 367.232C536.491 357.178 535.807 354.046 532.552 358.874C529.297 363.703 529.817 370.706 530.637 379.268C530.913 384.741 529.921 390.204 527.738 395.23C525.289 399.88 522.691 404.695 520.064 409.427C522.292 404.577 523.702 399.391 524.236 394.081C525.371 382.468 523.88 371.8 521.186 374.823C518.491 377.845 520.092 385.929 519.736 395.763C519.541 401.734 518.869 407.68 517.726 413.544L516.905 414.994C517.986 410 518.272 404.867 517.753 399.784C518.286 397.842 518.095 396.597 517.452 396.009C517.356 393.821 517.534 390.538 516.604 388.856C514.251 384.657 511.68 390.306 511.653 392.535C511.655 394.242 511.774 395.946 512.008 397.637C511.092 398.488 510.3 399.465 509.656 400.537C509.3 401.138 508.931 401.795 508.534 402.52C508.534 401.822 508.616 401.07 508.644 400.4C508.767 398.505 508.369 396.614 507.495 394.929C508.907 392.109 509.924 389.108 510.517 386.011C510.792 384.986 510.72 383.899 510.312 382.92C510.176 382.618 509.982 382.345 509.74 382.118C509.499 381.891 509.215 381.714 508.905 381.597C508.595 381.48 508.265 381.426 507.934 381.437C507.602 381.448 507.277 381.524 506.975 381.661C506.829 381.731 506.688 381.808 506.551 381.894C502.092 384.26 500.902 389.95 500.382 394.518C499.892 398.459 499.096 402.355 498.002 406.172C497.086 409.605 496.279 412.71 495.759 414.871C495.405 412.566 494.921 410.282 494.309 408.032C493.803 406.158 493.325 404.353 492.86 402.561C492.431 396.224 493.671 389.886 496.457 384.178C501.736 373.318 505.552 368.203 501.928 368.025C498.303 367.847 492.955 373.496 492.203 382.441C491.638 387.861 491.523 393.319 491.861 398.758C490.698 394.655 489.55 390.675 488.36 386.681C487.44 382.271 487.666 377.698 489.016 373.4C491.505 366.028 498.946 352.884 495.034 353.964C491.122 355.045 486.417 362.595 485.884 370.637C485.742 374.839 486.203 379.04 487.252 383.111C486.404 380.321 485.492 377.421 484.516 374.412C484.106 373.045 483.668 371.677 483.244 370.309C483.261 370.062 483.223 369.815 483.135 369.584C482.589 365.429 483.339 361.206 485.282 357.493C489.03 350.764 495.992 344.978 491.888 343.432C487.785 341.887 481.589 352.829 481.22 358.3C481.137 360.382 481.302 362.467 481.712 364.51L481.206 363.238C480.317 360.092 479.455 356.987 478.703 354.238C478.541 350.178 479.357 346.139 481.083 342.461C484.749 334.063 489.399 324.475 484.653 326.91C480.823 328.893 476.693 340.204 477.5 349.765C477.185 348.507 476.884 347.44 476.652 346.565C476.036 341.094 474.86 328.209 476.652 320.577C477.828 315.462 479.756 310.606 480.344 305.34C480.463 304.756 480.421 304.151 480.221 303.589C478.936 300.416 474.75 306.598 474.121 307.611C471.566 311.683 470.258 316.414 470.36 321.22C470.363 325.316 470.85 329.397 471.81 333.379C472.393 335.923 473.1 338.44 473.93 340.929C474.449 342.53 475.38 344.321 476.091 346.058C476.446 347.878 476.843 349.724 477.267 351.379C472.247 341.668 465.887 321.165 462.331 316.993C458.406 312.521 460.307 322.93 466.188 333.94C469.57 340.23 473.344 346.301 477.486 352.118C477.677 352.802 477.869 353.485 478.06 354.019C478.457 355.305 479.141 357.507 480.016 360.393C476.022 351.954 469.649 343.473 467.474 343.706C464.342 344.062 466.831 348.069 472.671 354.32C476.636 358.956 480.013 364.065 482.724 369.529C483.709 372.949 484.79 376.696 485.898 380.69C482.984 374.645 477.541 367.108 473.588 361.323C467.898 352.884 465.258 351.051 466.174 356.795C467.091 362.54 472.275 367.286 478.717 373.017C482.632 376.85 485.617 381.529 487.443 386.695C488.811 391.756 490.179 397.049 491.546 402.315C489.867 397.243 487.362 392.483 484.133 388.227C477.021 378.94 468.65 372.169 468.746 376.204C468.842 380.239 475.516 385.081 481.999 392.467C485.933 396.952 489.488 401.756 492.627 406.828C492.764 407.348 492.887 407.882 493.01 408.401C490.11 403.081 485.474 398.745 480.974 394.724C479.387 393.274 476.993 390.224 474.955 389.567C470.387 388.117 472.357 393.999 473.861 395.64C478.744 400.974 485.624 404.271 490.138 409.892C491.84 412.005 493.364 414.256 494.692 416.622C495.007 418.468 495.239 420.191 495.431 421.805C493.698 420.164 491.875 418.614 489.96 417.155C484.489 413.448 481.247 408.347 476.993 403.477C475.721 402.027 473.56 400.222 471.522 400.126C468.623 400.003 467.761 403.04 468.623 405.433C471.974 415.295 484.585 415.732 491.984 420.862C493.334 421.726 494.582 422.74 495.705 423.884C496.019 426.928 496.101 429.992 495.951 433.048H478.99V440.12H484.024L488.127 465.287H522.034L526.137 440.12H531.171V433.048H505.744C506.906 431.599 508.151 430.149 509.41 428.494L514.771 428.658C514.771 428.658 533.414 429.465 540.253 425.745C547.091 422.024 540.991 418.495 534.44 420.397C527.888 422.298 515.031 428.056 512.186 428.056L509.779 427.988C511.147 426.251 512.514 424.459 513.718 422.626C518.851 421.336 523.899 419.728 528.832 417.811C534.18 415.691 540.444 413.982 544.999 410.384C545.884 409.802 546.556 408.947 546.914 407.95C547.122 407.315 547.07 406.624 546.77 406.027C546.471 405.43 545.947 404.975 545.313 404.763C545.166 404.714 545.015 404.677 544.862 404.654C539.979 403.286 535.219 406.678 531.8 409.66C528.79 412.208 525.589 414.522 522.225 416.58C519.203 418.441 516.495 420.191 514.662 421.381C516.029 419.371 517.26 417.36 518.314 415.404C519.23 413.681 520.119 412.04 520.953 410.439C524.981 405.538 530.213 401.768 536.136 399.497C547.406 395.148 553.657 394.026 551.181 391.414C548.705 388.801 540.868 389.28 534.221 395.312C530.1 398.886 526.284 402.797 522.814 407.006C524.797 403.176 526.657 399.511 528.503 395.79C530.853 391.934 534.149 388.742 538.078 386.517C544.917 382.851 559.306 378.31 555.736 376.437C552.166 374.563 543.549 376.847 537.695 382.373C534.718 385.351 532.185 388.741 530.172 392.439C531.458 389.8 532.771 387.078 534.152 384.233C534.741 382.974 535.383 381.689 536.04 380.348C536.177 380.143 536.327 379.952 536.45 379.733C538.891 376.325 542.326 373.754 546.284 372.374C553.547 370.008 562.698 370.528 560.701 366.561C558.704 362.595 546.722 366.397 542.715 370.159C541.241 371.635 539.938 373.273 538.83 375.041C539.008 374.631 539.186 374.193 539.35 373.756C540.8 370.856 542.25 367.956 543.699 365.549C546.339 362.461 549.69 360.062 553.465 358.56C561.877 354.935 571.834 351.092 566.692 349.628C562.588 348.452 551.783 353.896 545.874 361.446L547.433 358.546C550.716 354.101 558.649 343.884 565.214 339.493C569.564 336.58 574.283 334.309 578.277 330.863C578.715 330.534 579.071 330.108 579.316 329.618C580.383 326.281 573.147 327.977 571.862 328.209ZM495.978 416.197C497.072 414.529 499.001 411.451 501.135 407.499C501.792 409.3 502.54 411.067 503.378 412.792C501.408 416.895 499.603 420.369 498.563 421.272L496.758 422.859C496.635 420.697 496.32 418.482 496.005 416.252L495.978 416.197ZM508.288 427.947C506.964 429.706 505.539 431.386 504.021 432.98H497.455C497.36 430.244 497.168 426.976 496.853 423.406L500.888 419.849C500.888 419.849 502.653 418.4 504.992 416.061C506.139 418.316 507.029 420.692 507.645 423.146C508.081 424.747 508.315 426.397 508.343 428.056L508.288 427.947ZM513.759 413.982C513.566 416.693 513.145 419.383 512.501 422.024C511.475 423.597 510.463 425.02 509.505 426.374C509.423 423.939 508.767 419.535 508.698 419.234C508.247 417.263 508 415.251 507.96 413.229C509.891 411.242 511.717 409.156 513.431 406.979C513.82 409.31 513.953 411.676 513.827 414.036L513.759 413.982Z" fill="#263238"/>
<path d="M523.99 61.1668V326.842C523.99 333.68 518.888 339.151 512.555 339.151H31.348C25.0289 339.151 19.8998 333.68 19.8998 326.842V61.1668C19.8998 54.328 25.0289 48.8569 31.348 48.8569H512.596C518.929 48.8706 523.99 54.369 523.99 61.1668Z" fill="white" stroke="#263238" stroke-width="1.06897" stroke-linecap="round" stroke-linejoin="round"/>
<path d="M158.783 95.4019H46.6259C41.8744 95.4019 38.0226 99.2537 38.0226 104.005V293.126C38.0226 297.877 41.8744 301.729 46.6259 301.729H158.783C163.534 301.729 167.386 297.877 167.386 293.126V104.005C167.386 99.2537 163.534 95.4019 158.783 95.4019Z" fill="#FB9C3B"/>
<path d="M86.5648 141.222C86.5648 145.147 85.4008 148.985 83.2201 152.248C81.0394 155.512 77.9398 158.056 74.3134 159.558C70.6869 161.06 66.6965 161.453 62.8467 160.687C58.9969 159.921 55.4607 158.031 52.6851 155.256C49.9096 152.48 48.0194 148.944 47.2536 145.094C46.4878 141.244 46.8808 137.254 48.383 133.627C49.8851 130.001 52.4288 126.901 55.6925 124.721C58.9562 122.54 62.7933 121.376 66.7185 121.376C69.3253 121.374 71.9068 121.886 74.3155 122.883C76.7242 123.88 78.9127 125.342 80.756 127.185C82.5992 129.028 84.061 131.217 85.0578 133.625C86.0545 136.034 86.5666 138.615 86.5648 141.222V141.222Z" fill="white" stroke="#263238" stroke-width="1.06897" stroke-linecap="round" stroke-linejoin="round"/>
<path d="M147.977 129.815H106.548V133.74H147.977V129.815Z" fill="#263238"/>
<path d="M153.038 139.252H106.548V143.178H153.038V139.252Z" fill="#263238"/>
<path d="M147.977 148.69H106.548V152.615H147.977V148.69Z" fill="#263238"/>
<path d="M155.705 158.114H106.548V162.04H155.705V158.114Z" fill="#263238"/>
<path d="M145.707 184.279H59.5238C55.4825 184.279 52.2063 187.555 52.2063 191.597V209.323C52.2063 213.364 55.4825 216.641 59.5238 216.641H145.707C149.748 216.641 153.024 213.364 153.024 209.323V191.597C153.024 187.555 149.748 184.279 145.707 184.279Z" fill="white" stroke="#263238" stroke-width="1.06897" stroke-linecap="round" stroke-linejoin="round"/>
<path d="M145.707 227.405H59.5238C55.4825 227.405 52.2063 230.681 52.2063 234.723V252.449C52.2063 256.49 55.4825 259.767 59.5238 259.767H145.707C149.748 259.767 153.024 256.49 153.024 252.449V234.723C153.024 230.681 149.748 227.405 145.707 227.405Z" fill="white" stroke="#263238" stroke-width="1.06897" stroke-linecap="round" stroke-linejoin="round"/>
<path d="M370.568 94.814V314.272" stroke="#263238" stroke-width="1.06897" stroke-linecap="round" stroke-linejoin="round"/>
<path d="M523.99 60.3335V78.1144H19.9V60.3335C19.9 57.296 21.1057 54.3827 23.2522 52.2335C25.3988 50.0844 28.3107 48.8752 31.3482 48.8716H512.597C515.627 48.8824 518.529 50.0957 520.665 52.2448C522.801 54.394 523.997 57.3032 523.99 60.3335V60.3335Z" fill="#263238"/>
<path d="M54.3675 68.0468C56.8981 68.0468 58.9495 65.9954 58.9495 63.4648C58.9495 60.9343 56.8981 58.8828 54.3675 58.8828C51.8369 58.8828 49.7855 60.9343 49.7855 63.4648C49.7855 65.9954 51.8369 68.0468 54.3675 68.0468Z" fill="white"/>
<path d="M80.1089 63.4648C80.1089 64.3711 79.8401 65.257 79.3367 66.0105C78.8332 66.764 78.1176 67.3513 77.2803 67.6981C76.4431 68.0449 75.5218 68.1356 74.6329 67.9588C73.7441 67.782 72.9277 67.3456 72.2869 66.7048C71.6461 66.064 71.2097 65.2476 71.0329 64.3587C70.8561 63.4699 70.9468 62.5486 71.2936 61.7114C71.6404 60.8741 72.2277 60.1585 72.9812 59.655C73.7347 59.1516 74.6206 58.8828 75.5268 58.8828C76.7421 58.8828 77.9075 59.3656 78.7668 60.2249C79.6261 61.0841 80.1089 62.2496 80.1089 63.4648V63.4648Z" fill="white"/>
<path d="M101.008 63.4648C101.008 64.3711 100.739 65.257 100.236 66.0105C99.7325 66.764 99.0168 67.3513 98.1796 67.6981C97.3423 68.0449 96.421 68.1356 95.5322 67.9588C94.6434 67.782 93.827 67.3456 93.1862 66.7048C92.5453 66.064 92.109 65.2476 91.9322 64.3587C91.7554 63.4699 91.8461 62.5486 92.1929 61.7114C92.5397 60.8741 93.127 60.1585 93.8805 59.655C94.634 59.1516 95.5199 58.8828 96.4261 58.8828C97.6414 58.8828 98.8068 59.3656 99.6661 60.2249C100.525 61.0841 101.008 62.2496 101.008 63.4648Z" fill="white"/>
<path d="M500.123 115.193H390.072V118.845H500.123V115.193Z" fill="#FB9C3B"/>
<path d="M443.224 126.587H390.072V130.239H443.224V126.587Z" fill="#FB9C3B"/>
<path d="M475.147 137.98H390.072V141.632H475.147V137.98Z" fill="#FB9C3B"/>
<path d="M466.065 149.046H390.072V153.012H466.065V149.046Z" fill="#FB9C3B"/>
<path d="M463.685 160.768H390.072V164.42H463.685V160.768Z" fill="#FB9C3B"/>
<path d="M437.903 172.161H390.072V175.813H437.903V172.161Z" fill="#FB9C3B"/>
<path opacity="0.2" d="M500.123 115.193H390.072V118.845H500.123V115.193Z" fill="black"/>
<path opacity="0.2" d="M443.224 126.587H390.072V130.239H443.224V126.587Z" fill="black"/>
<path opacity="0.2" d="M475.147 137.98H390.072V141.632H475.147V137.98Z" fill="black"/>
<path opacity="0.2" d="M466.065 149.046H390.072V153.012H466.065V149.046Z" fill="black"/>
<path opacity="0.2" d="M463.685 160.768H390.072V164.42H463.685V160.768Z" fill="black"/>
<path opacity="0.2" d="M437.903 172.161H390.072V175.813H437.903V172.161Z" fill="black"/>
<path d="M66.7186 151.767C73.011 151.767 78.1121 146.666 78.1121 140.374C78.1121 134.082 73.011 128.98 66.7186 128.98C60.4261 128.98 55.3251 134.082 55.3251 140.374C55.3251 146.666 60.4261 151.767 66.7186 151.767Z" fill="#263238"/>
<path d="M78.0986 157.512C74.6644 159.886 70.5693 161.118 66.3952 161.032C62.221 160.946 58.1801 159.547 54.8466 157.033C56.7204 153.272 60.3176 147.459 64.886 147.459C70.6032 147.377 74.5014 149.894 78.0986 157.512Z" fill="#263238"/>
<path d="M492.367 57.1318H382.59C379.455 57.1318 376.914 59.6732 376.914 62.8081V64.1211C376.914 67.256 379.455 69.7973 382.59 69.7973H492.367C495.502 69.7973 498.043 67.256 498.043 64.1211V62.8081C498.043 59.6732 495.502 57.1318 492.367 57.1318Z" fill="white"/>
<path d="M384.095 59.293V67.3354" stroke="#263238" stroke-width="1.06897" stroke-linecap="round" stroke-linejoin="round"/>
<path d="M145.762 271.857H118.297C115.313 271.857 112.894 274.276 112.894 277.26V284.195C112.894 287.179 115.313 289.597 118.297 289.597H145.762C148.746 289.597 151.164 287.179 151.164 284.195V277.26C151.164 274.276 148.746 271.857 145.762 271.857Z" fill="#FB9C3B"/>
<path d="M501.463 272.117H399.304V218.583" stroke="#263238" stroke-width="1.06897" stroke-linecap="round" stroke-linejoin="round"/>
<path d="M403.435 250.041L407.826 259.848L430.872 229.347L435.687 244.064L444.796 238.949L465.846 259.848L481.562 245.35L487.635 251.737L498.112 231.139" stroke="#263238" stroke-width="1.06897" stroke-linecap="round" stroke-linejoin="round"/>
<path d="M396.911 268.752H389.511V272.103H396.911V268.752Z" fill="#FB9C3B"/>
<path d="M396.911 256.498H389.511V259.849H396.911V256.498Z" fill="#FB9C3B"/>
<path d="M396.911 244.229H389.511V247.58H396.911V244.229Z" fill="#FB9C3B"/>
<path d="M396.911 231.96H389.511V235.311H396.911V231.96Z" fill="#FB9C3B"/>
<path d="M396.911 219.705H389.511V223.056H396.911V219.705Z" fill="#FB9C3B"/>
<path d="M449.187 274.812V295.944H452.483V274.812H449.187Z" fill="#FB9C3B"/>
<path d="M460.922 274.812V295.944H464.218V274.812H460.922Z" fill="#FB9C3B"/>
<path d="M472.658 274.826V295.958H475.954V274.826H472.658Z" fill="#FB9C3B"/>
<path d="M484.393 274.826V295.958H487.69V274.826H484.393Z" fill="#FB9C3B"/>
<path d="M496.129 274.826V295.958H499.425V274.826H496.129Z" fill="#FB9C3B"/>
<path d="M437.15 274.826V295.958H440.447V274.826H437.15Z" fill="#FB9C3B"/>
<path d="M425.114 274.826V295.958H428.41V274.826H425.114Z" fill="#FB9C3B"/>
<path d="M413.064 274.812V295.944H416.36V274.812H413.064Z" fill="#FB9C3B"/>
<path d="M401.028 274.826V295.958H404.324V274.826H401.028Z" fill="#FB9C3B"/>
<path d="M307.404 104.429C301.941 104.429 296.702 106.599 292.839 110.462C288.976 114.325 286.806 119.565 286.806 125.028C286.806 130.491 288.976 135.73 292.839 139.593C296.702 143.456 301.941 145.626 307.404 145.626C310.109 145.681 312.798 145.203 315.319 144.218C317.839 143.233 320.14 141.762 322.092 139.888C324.043 138.014 325.606 135.774 326.692 133.296C327.778 130.818 328.365 128.15 328.42 125.445C328.475 122.74 327.996 120.051 327.011 117.53C326.027 115.01 324.556 112.709 322.682 110.757C320.808 108.806 318.568 107.243 316.089 106.157C313.611 105.071 310.943 104.484 308.238 104.429H307.404Z" fill="#263238"/>
<path d="M320.466 118.422C320.315 117.841 320.012 117.312 319.589 116.886C319.167 116.461 318.638 116.155 318.059 116.001C315.925 115.426 307.39 115.426 307.39 115.426C307.39 115.426 298.856 115.426 296.736 116.001C296.154 116.155 295.624 116.46 295.199 116.885C294.774 117.31 294.468 117.84 294.315 118.422C293.562 122.798 293.562 127.271 294.315 131.648C294.468 132.229 294.774 132.76 295.199 133.185C295.624 133.61 296.154 133.915 296.736 134.069C298.856 134.643 307.39 134.643 307.39 134.643C307.39 134.643 315.925 134.643 318.059 134.069C318.637 133.912 319.164 133.605 319.586 133.18C320.009 132.755 320.312 132.227 320.466 131.648C321.233 127.273 321.233 122.797 320.466 118.422V118.422Z" fill="white"/>
<path d="M304.6 129.09V120.979L311.74 125.028L304.6 129.09Z" fill="#263238"/>
<path d="M226.254 104.484C222.197 104.484 218.23 105.687 214.856 107.942C211.482 110.196 208.852 113.4 207.3 117.149C205.747 120.898 205.34 125.023 206.132 129.003C206.924 132.983 208.878 136.638 211.747 139.508C214.616 142.377 218.272 144.331 222.252 145.123C226.232 145.914 230.357 145.508 234.106 143.955C237.855 142.402 241.059 139.773 243.313 136.399C245.567 133.025 246.771 129.058 246.771 125C246.771 119.559 244.609 114.341 240.762 110.493C236.914 106.645 231.696 104.484 226.254 104.484Z" fill="#263238"/>
<path d="M222.794 138.213H228.114V124.891H231.821L232.218 120.432H228.114V117.875C228.114 116.821 228.32 116.411 229.345 116.411H232.218V111.774H228.552C224.599 111.774 222.808 113.525 222.808 116.849V120.405H220.072V124.905H222.808L222.794 138.213Z" fill="white"/>
<path d="M226.132 187.986C222.058 187.986 218.076 189.194 214.689 191.456C211.302 193.719 208.662 196.935 207.102 200.699C205.543 204.462 205.134 208.603 205.928 212.598C206.722 216.593 208.682 220.264 211.562 223.145C214.441 226.026 218.11 227.989 222.105 228.785C226.1 229.582 230.241 229.176 234.005 227.619C237.769 226.062 240.987 223.424 243.252 220.038C245.517 216.653 246.728 212.672 246.73 208.598C246.73 203.134 244.561 197.893 240.698 194.028C236.835 190.163 231.596 187.989 226.132 187.986Z" fill="#263238"/>
<path d="M226.132 198.75C229.332 198.75 229.715 198.75 230.987 198.75C231.749 198.763 232.503 198.906 233.217 199.174C233.734 199.363 234.202 199.667 234.585 200.063C234.983 200.447 235.291 200.914 235.487 201.431C235.752 202.145 235.891 202.899 235.898 203.661C235.898 204.933 235.898 205.357 235.898 208.503C235.898 211.648 235.898 212.1 235.898 213.358C235.893 214.12 235.754 214.874 235.487 215.588C235.297 216.107 234.987 216.576 234.585 216.955C234.202 217.355 233.735 217.664 233.217 217.858C232.501 218.116 231.748 218.254 230.987 218.268C229.715 218.268 229.332 218.268 226.132 218.268C222.931 218.268 222.548 218.268 221.276 218.268C220.515 218.257 219.762 218.118 219.047 217.858C218.529 217.664 218.061 217.355 217.679 216.955C217.276 216.576 216.967 216.107 216.776 215.588C216.51 214.874 216.371 214.12 216.366 213.358C216.366 212.1 216.284 211.717 216.284 208.503C216.284 205.288 216.284 204.933 216.366 203.661C216.372 202.899 216.511 202.145 216.776 201.431C216.967 200.911 217.276 200.443 217.679 200.063C218.062 199.667 218.529 199.363 219.047 199.174C219.761 198.91 220.515 198.767 221.276 198.75C222.548 198.75 222.918 198.75 226.132 198.75ZM226.132 196.589C222.876 196.589 222.452 196.589 221.18 196.589C220.201 196.599 219.229 196.775 218.308 197.109C217.513 197.417 216.791 197.887 216.188 198.49C215.585 199.093 215.115 199.815 214.807 200.611C214.459 201.544 214.269 202.528 214.246 203.524C214.246 204.81 214.164 205.22 214.164 208.475C214.164 211.731 214.164 212.141 214.246 213.427C214.267 214.422 214.456 215.407 214.807 216.34C215.109 217.145 215.577 217.877 216.18 218.49C216.783 219.102 217.508 219.581 218.308 219.896C219.243 220.237 220.227 220.427 221.221 220.457C222.507 220.457 222.918 220.457 226.173 220.457C229.428 220.457 229.838 220.457 231.124 220.457C232.119 220.427 233.102 220.237 234.037 219.896C234.833 219.585 235.555 219.112 236.158 218.507C236.761 217.902 237.231 217.178 237.539 216.381C237.889 215.449 238.079 214.463 238.1 213.468C238.1 212.196 238.182 211.785 238.182 208.516C238.182 205.247 238.182 204.851 238.1 203.565C238.077 202.574 237.888 201.593 237.539 200.665C237.233 199.867 236.764 199.142 236.161 198.537C235.558 197.931 234.834 197.459 234.037 197.15C233.104 196.802 232.12 196.613 231.124 196.589C229.838 196.589 229.428 196.589 226.173 196.589" fill="white"/>
<path d="M226.132 202.375C224.911 202.372 223.718 202.731 222.702 203.407C221.686 204.083 220.893 205.044 220.424 206.17C219.955 207.296 219.83 208.537 220.065 209.734C220.3 210.931 220.886 212.031 221.746 212.896C222.607 213.76 223.705 214.35 224.901 214.591C226.097 214.832 227.338 214.712 228.466 214.248C229.594 213.784 230.559 212.995 231.239 211.982C231.919 210.969 232.284 209.777 232.286 208.557V208.557C232.286 206.925 231.638 205.359 230.484 204.205C229.329 203.051 227.764 202.402 226.132 202.402V202.375ZM226.132 212.538C225.338 212.54 224.562 212.307 223.901 211.869C223.24 211.43 222.725 210.805 222.419 210.073C222.114 209.341 222.033 208.535 222.186 207.757C222.339 206.978 222.719 206.263 223.279 205.701C223.839 205.139 224.553 204.756 225.331 204.6C226.109 204.445 226.915 204.523 227.648 204.826C228.381 205.129 229.008 205.643 229.449 206.302C229.89 206.961 230.125 207.737 230.125 208.53V208.53C230.125 209.59 229.705 210.608 228.956 211.359C228.208 212.11 227.192 212.534 226.132 212.538Z" fill="white"/>
<path d="M308.17 227.665C305.592 227.667 303.039 227.16 300.657 226.175C298.275 225.189 296.11 223.743 294.287 221.92C292.465 220.097 291.019 217.933 290.033 215.551C289.047 213.169 288.541 210.616 288.543 208.038V208.038C288.543 202.832 290.611 197.84 294.291 194.159C297.972 190.478 302.965 188.41 308.17 188.41V188.41C313.376 188.41 318.368 190.478 322.049 194.159C325.73 197.84 327.798 202.832 327.798 208.038V208.038C327.799 210.616 327.293 213.169 326.307 215.551C325.321 217.933 323.876 220.097 322.053 221.92C320.23 223.743 318.066 225.189 315.683 226.175C313.301 227.16 310.748 227.667 308.17 227.665V227.665Z" fill="#263238" stroke="#263238" stroke-width="1.06897" stroke-linecap="round" stroke-linejoin="round"/>
<path d="M297.72 214.685C299.677 215.945 301.958 216.61 304.285 216.599C305.948 216.612 307.595 216.282 309.125 215.632C310.655 214.982 312.035 214.025 313.18 212.819C314.325 211.614 315.211 210.187 315.782 208.625C316.353 207.064 316.597 205.402 316.5 203.742C317.327 203.125 318.044 202.371 318.62 201.513C317.838 201.863 317.008 202.093 316.158 202.197C317.049 201.656 317.714 200.81 318.032 199.817C317.187 200.325 316.262 200.686 315.296 200.884C314.648 200.2 313.794 199.749 312.864 199.598C311.934 199.448 310.981 199.608 310.151 200.052C309.321 200.497 308.66 201.202 308.27 202.059C307.88 202.916 307.782 203.878 307.992 204.796C306.287 204.708 304.62 204.264 303.098 203.491C301.576 202.718 300.233 201.634 299.156 200.309C298.611 201.259 298.448 202.381 298.703 203.446C298.957 204.512 299.608 205.44 300.524 206.04C299.844 206.017 299.179 205.834 298.582 205.507C298.574 206.502 298.913 207.469 299.539 208.242C300.165 209.015 301.04 209.547 302.015 209.747C301.382 209.904 300.72 209.904 300.086 209.747C300.358 210.601 300.891 211.348 301.61 211.883C302.329 212.418 303.198 212.714 304.094 212.729C303.212 213.458 302.196 214.006 301.102 214.342C300.008 214.677 298.859 214.794 297.72 214.685V214.685Z" fill="white"/>
<path d="M307.514 275.783C303.436 275.781 299.45 276.987 296.058 279.25C292.667 281.514 290.023 284.732 288.461 288.498C286.898 292.264 286.488 296.409 287.282 300.408C288.076 304.408 290.038 308.082 292.92 310.966C295.802 313.85 299.475 315.814 303.474 316.611C307.472 317.407 311.618 317 315.385 315.44C319.152 313.88 322.372 311.238 324.637 307.848C326.903 304.458 328.112 300.473 328.112 296.395C328.112 290.931 325.942 285.69 322.08 281.825C318.217 277.96 312.978 275.787 307.514 275.783V275.783Z" fill="#263238"/>
<path d="M301.496 290.993H296.968V305.628H301.496V290.993Z" fill="white"/>
<path d="M299.211 289.078C299.752 289.078 300.281 288.917 300.731 288.616C301.181 288.316 301.531 287.889 301.738 287.389C301.945 286.889 302 286.339 301.894 285.808C301.788 285.278 301.528 284.79 301.145 284.408C300.763 284.025 300.275 283.765 299.745 283.659C299.214 283.553 298.664 283.608 298.164 283.815C297.664 284.022 297.237 284.372 296.936 284.822C296.636 285.272 296.475 285.801 296.475 286.342C296.475 287.068 296.764 287.763 297.277 288.276C297.79 288.789 298.485 289.078 299.211 289.078Z" fill="white"/>
<path d="M308.745 297.955C308.745 295.889 309.688 294.672 311.48 294.672C313.272 294.672 313.942 295.848 313.942 297.955V305.628H318.456V296.395C318.456 292.483 316.226 290.569 313.108 290.569C312.226 290.559 311.356 290.778 310.585 291.205C309.813 291.632 309.165 292.251 308.704 293.003V291.047H304.34V305.682H308.704L308.745 297.955Z" fill="white"/>
<path d="M226.118 316.911C220.655 316.911 215.415 314.741 211.552 310.878C207.689 307.015 205.519 301.776 205.519 296.313C205.519 290.849 207.689 285.608 211.552 281.743C215.414 277.878 220.654 275.704 226.118 275.701C231.585 275.701 236.827 277.872 240.693 281.738C244.558 285.603 246.73 290.846 246.73 296.313C246.726 301.777 244.553 307.017 240.688 310.879C236.823 314.742 231.582 316.911 226.118 316.911V316.911Z" fill="#263238"/>
<path d="M223.081 304.123C223.673 303.999 224.232 303.752 224.723 303.398C225.246 302.989 225.668 302.466 225.957 301.868C226.246 301.271 226.395 300.615 226.391 299.951C226.412 299.206 226.217 298.47 225.831 297.831C225.436 297.23 224.847 296.781 224.162 296.559C224.58 296.359 224.956 296.08 225.27 295.739C225.736 295.128 225.968 294.372 225.926 293.605C225.952 292.819 225.722 292.046 225.27 291.403C224.811 290.869 224.232 290.452 223.581 290.185C222.929 289.919 222.224 289.811 221.522 289.871H214.533V304.287H221.016C221.708 304.301 222.4 304.246 223.081 304.123V304.123ZM217.419 292.374H220.551C221.13 292.354 221.708 292.433 222.261 292.606C222.527 292.712 222.749 292.905 222.891 293.153C223.033 293.402 223.085 293.692 223.04 293.974C223.066 294.22 223.025 294.467 222.922 294.691C222.818 294.915 222.656 295.107 222.452 295.246C221.983 295.5 221.454 295.623 220.92 295.602H217.419V292.374ZM217.419 301.812V297.954H220.961C221.455 297.944 221.946 298.023 222.411 298.187C222.707 298.32 222.955 298.542 223.121 298.82C223.288 299.099 223.365 299.422 223.341 299.746C223.377 300.108 223.306 300.472 223.135 300.793C222.965 301.115 222.704 301.378 222.384 301.552C221.92 301.739 221.421 301.828 220.92 301.812H217.419Z" fill="white"/>
<path d="M228.785 303.371C229.837 304.259 231.17 304.744 232.546 304.739C233.303 304.798 234.063 304.688 234.773 304.419C235.482 304.149 236.123 303.726 236.65 303.179C237.196 302.673 237.557 301.999 237.675 301.265H234.817C234.678 301.54 234.488 301.786 234.256 301.989C233.811 302.334 233.259 302.508 232.697 302.482C232.155 302.495 231.62 302.358 231.151 302.085C230.788 301.836 230.495 301.498 230.301 301.102C230.107 300.707 230.018 300.268 230.043 299.828H237.826C237.854 299.121 237.826 298.412 237.744 297.708C237.601 296.867 237.264 296.071 236.759 295.383C236.303 294.696 235.664 294.151 234.913 293.81C234.119 293.465 233.261 293.292 232.396 293.304C231.693 293.277 230.991 293.394 230.335 293.648C229.679 293.902 229.081 294.288 228.58 294.781C227.582 295.953 227.09 297.473 227.212 299.008C227.121 299.807 227.215 300.617 227.488 301.373C227.761 302.13 228.205 302.814 228.785 303.371V303.371ZM230.782 296.259C231.005 296.05 231.267 295.887 231.554 295.782C231.841 295.676 232.145 295.629 232.451 295.643C233.06 295.627 233.655 295.836 234.119 296.231C234.351 296.446 234.536 296.706 234.663 296.996C234.79 297.285 234.856 297.597 234.858 297.914H230.043C230.11 297.298 230.368 296.719 230.782 296.259Z" fill="white"/>
<path d="M235.405 290.691H229.127V292.155H235.405V290.691Z" fill="white"/>
<path d="M248.385 96.7285H204.124C200.717 96.7285 197.956 99.4903 197.956 102.897V147.158C197.956 150.565 200.717 153.327 204.124 153.327H248.385C251.792 153.327 254.554 150.565 254.554 147.158V102.897C254.554 99.4903 251.792 96.7285 248.385 96.7285Z" stroke="#FB9C3B" stroke-width="1.06897" stroke-miterlimit="10"/>
<path d="M329.945 96.7285H285.684C282.278 96.7285 279.516 99.4903 279.516 102.897V147.158C279.516 150.565 282.278 153.327 285.684 153.327H329.945C333.352 153.327 336.114 150.565 336.114 147.158V102.897C336.114 99.4903 333.352 96.7285 329.945 96.7285Z" stroke="#FB9C3B" stroke-width="1.06897" stroke-miterlimit="10"/>
<path d="M248.385 179.629H204.124C200.717 179.629 197.956 182.391 197.956 185.798V230.058C197.956 233.465 200.717 236.227 204.124 236.227H248.385C251.792 236.227 254.554 233.465 254.554 230.058V185.798C254.554 182.391 251.792 179.629 248.385 179.629Z" stroke="#FB9C3B" stroke-width="1.06897" stroke-miterlimit="10"/>
<path d="M329.945 179.629H285.684C282.278 179.629 279.516 182.391 279.516 185.798V230.058C279.516 233.465 282.278 236.227 285.684 236.227H329.945C333.352 236.227 336.114 233.465 336.114 230.058V185.798C336.114 182.391 333.352 179.629 329.945 179.629Z" stroke="#FB9C3B" stroke-width="1.06897" stroke-miterlimit="10"/>
<path d="M248.385 266.633H204.124C200.717 266.633 197.956 269.395 197.956 272.801V317.062C197.956 320.469 200.717 323.231 204.124 323.231H248.385C251.792 323.231 254.554 320.469 254.554 317.062V272.801C254.554 269.395 251.792 266.633 248.385 266.633Z" stroke="#FB9C3B" stroke-width="1.06897" stroke-miterlimit="10"/>
<path d="M329.945 266.633H285.684C282.278 266.633 279.516 269.395 279.516 272.801V317.062C279.516 320.469 282.278 323.231 285.684 323.231H329.945C333.352 323.231 336.114 320.469 336.114 317.062V272.801C336.114 269.395 333.352 266.633 329.945 266.633Z" stroke="#FB9C3B" stroke-width="1.06897" stroke-miterlimit="10"/>
<path d="M328.427 244.078H288.543V256.183H328.427V244.078Z" fill="#FB9C3B"/>
<path d="M328.427 161.041H288.543V173.146H328.427V161.041Z" fill="#FB9C3B"/>
<path d="M246.074 161.041H206.19V173.146H246.074V161.041Z" fill="#FB9C3B"/>
<path d="M246.074 244.078H206.19V256.183H246.074V244.078Z" fill="#FB9C3B"/>
<path d="M328.427 244.078H288.543V256.183H328.427V244.078Z" fill="#263238"/>
<path d="M328.427 161.041H288.543V173.146H328.427V161.041Z" fill="#263238"/>
<path d="M246.074 161.041H206.19V173.146H246.074V161.041Z" fill="#263238"/>
<path d="M246.074 244.078H206.19V256.183H246.074V244.078Z" fill="#263238"/>
<path d="M58.9496 101.461H147.964" stroke="#263238" stroke-width="1.06897" stroke-linecap="round" stroke-linejoin="round"/>
<path d="M175.497 453.004C175.497 453.004 178.684 463.946 177.617 470.634C177.617 470.634 176.345 481.768 174.881 487.704C173.418 493.64 171.927 497.757 180.284 500.11C188.641 502.462 209.171 497.47 213.986 499.152C218.8 500.835 246.21 497.073 250.3 495.268C254.389 493.462 255.032 480.947 246.196 476.598C237.361 472.248 175.497 453.004 175.497 453.004Z" fill="white"/>
<path d="M176.714 475.928C176.714 475.928 174.334 489.305 174.403 491.739C178.462 490.582 182.645 489.912 186.863 489.742C192.498 489.742 209.39 489.961 216.092 488.949C222.794 487.937 235.678 483.218 241.642 483.191C245.425 483.189 249.202 483.523 252.926 484.189C252.926 484.189 253.624 479.416 244.213 476.926C234.803 474.437 200.513 467.229 200.513 467.229C200.513 467.229 192.854 475.463 176.714 475.928Z" fill="#FB9C3B"/>
<path d="M296.174 469.554C296.174 469.554 302.179 465.752 307.828 468.077C313.476 470.402 333.596 470.457 333.596 470.457C333.596 470.457 349.517 468.46 356.301 471.825C363.085 475.19 363.838 480.264 363.304 484.217C362.771 488.17 352.759 498.715 339.614 499.262C326.47 499.809 325.39 496.855 314.584 496.28C314.584 496.28 300.086 495.364 295.901 493.545C291.715 491.726 286.244 490.221 286.408 482.398C286.573 474.574 296.174 469.554 296.174 469.554Z" fill="white"/>
<path d="M296.175 469.554C296.175 469.554 302.261 466.107 313.012 469.335C323.762 472.563 342.706 467.79 350.913 470.634C359.119 473.479 360.254 478.841 359.201 480.906C358.148 482.972 351.159 491.329 343.39 492.656C335.621 493.982 318.1 493.175 310.071 494.639C310.071 494.639 293.48 495.596 288.187 487.308C282.894 479.019 296.175 469.554 296.175 469.554Z" fill="#FB9C3B"/>
<path d="M70.4657 463.563L60.3442 444.702L87.9457 416.225L112.853 419.193L126.954 440.681L123.439 453.004L70.4657 463.563Z" fill="#263238"/>
<path d="M49.5801 458.407C49.5801 458.407 50.346 493.682 73.2151 497.498C96.0841 501.314 177.699 461.607 177.699 461.607C177.699 461.607 208.09 477.391 230.959 479.388C253.829 481.385 287.038 485.639 290.43 489.441C293.822 493.244 306.515 477.296 299.197 467.721C299.197 467.721 274.427 466.148 258.807 458.366C243.187 450.583 192.115 421.039 181.829 419.234C171.544 417.429 112.073 445.618 112.073 445.618L94.1556 449.434L49.5801 458.407Z" fill="#263238"/>
<path d="M117.243 433.213L112.853 419.193C112.853 419.193 156.799 370.35 175.497 371.007C194.194 371.663 197.49 388.199 198.749 401.097C200.007 413.995 198.749 433.158 198.749 433.158L155.773 438.533L123.371 453.004L117.175 433.213" fill="#263238"/>
<path d="M164.924 425.02C164.924 425.786 166.428 402.752 173.035 392.453" stroke="white" stroke-width="1.06897" stroke-linecap="round" stroke-linejoin="round"/>
<path d="M180.051 392.07C179.584 396.619 179.612 401.205 180.133 405.748" stroke="white" stroke-width="1.06897" stroke-linecap="round" stroke-linejoin="round"/>
<path d="M176.905 475.463C176.905 475.463 173.664 492.41 174.553 495.979C175.688 500.507 187.533 500.603 190.898 500.753C198.338 501.068 205.765 500.329 213.206 500.452C218.868 500.548 224.517 501.15 230.193 501.068C235.878 501.187 241.516 500.023 246.689 497.662C251.038 495.487 253.883 492.396 253.336 487.335C252.611 480.661 250.382 478.978 241.163 477.925C231.944 476.872 199.405 467.147 199.405 467.147C199.405 467.147 194.358 476.01 176.905 475.463Z" stroke="#263238" stroke-width="1.06897" stroke-linecap="round" stroke-linejoin="round"/>
<path d="M176.905 475.463C178.175 469.143 178.175 462.634 176.905 456.314C174.744 446.576 191.499 455.056 191.499 455.056L200.513 464.781L199.405 467.133" stroke="#263238" stroke-width="1.06897" stroke-linecap="round" stroke-linejoin="round"/>
<path d="M175.497 497.73C175.458 496.76 175.757 495.807 176.343 495.034C176.93 494.26 177.766 493.714 178.711 493.49C181.145 492.847 184.1 493.285 186.575 493.353C190.857 493.49 195.138 493.668 199.419 493.709C213.835 493.832 227.827 489.264 242.23 488.717C244.76 488.621 249.287 487.951 251.531 489.523C255.142 492.054 248.481 497.019 245.978 498.031C239.842 500.239 233.346 501.269 226.829 501.067C218.376 500.671 205.136 500.725 199.405 500.794C193.674 500.862 182.924 503.051 175.497 497.73Z" fill="#263238"/>
<path d="M174.963 491.685C178.757 490.233 182.803 489.554 186.863 489.688C201.826 489.619 218.321 490.509 232.601 485.202C238.92 482.849 249.246 481.591 253.008 485.202" stroke="#263238" stroke-width="1.06897" stroke-linecap="round" stroke-linejoin="round"/>
<path d="M287.954 486.46C287.954 486.46 288.488 492.587 298.76 494.037C309.032 495.487 329.767 498.14 336.619 499.084C343.472 500.028 363.127 492.587 363.305 482.944C363.482 473.302 355.016 470.416 349.777 470.238C344.539 470.06 319.687 471.141 313.012 469.335C306.337 467.53 302.548 466.805 298.582 469.157" stroke="#263238" stroke-width="1.06897" stroke-linecap="round" stroke-linejoin="round"/>
<path d="M353.019 470.635C353.019 470.635 358.859 475.107 359.406 479.607C359.953 484.107 348.232 492.943 337.768 493.846C327.305 494.748 313.901 492.902 307.896 495.214" stroke="#263238" stroke-width="1.06897" stroke-linecap="round" stroke-linejoin="round"/>
<path d="M51.2076 325.952C51.2076 325.952 59.1954 331.875 63.0525 329.331C66.9096 326.787 75.3624 317.158 75.3624 317.158L87.5628 323.805L100.365 364.906L108.927 401.234L122.605 407.923V413.736C122.605 413.736 114.563 422.065 106.192 424.541C97.8211 427.017 88.6844 429.424 81.7909 427.81C74.8973 426.196 61.6847 380.54 61.6847 380.54L28.448 331.971L51.2076 325.952Z" fill="#263238"/>
<path d="M159.576 421.477L100.352 406.432L159.576 378.994L216.092 393.41L159.576 421.477Z" fill="white" stroke="#263238" stroke-width="1.06897" stroke-linecap="round" stroke-linejoin="round"/>
<path d="M159.576 421.477L172.816 360.693L228.128 339.589L216.762 393.807L159.576 421.477Z" fill="white"/>
<path d="M100.352 405.734V409.058L159.931 425.02L217.364 396.242L217.678 392.932L159.931 420.862L100.352 405.734Z" fill="#263238"/>
<path d="M71.6013 321.48C78.378 329.638 83.7198 338.888 87.399 348.835C92.7059 364.14 102.677 396.529 101.815 409.017L122.92 392.603C120.844 382.143 120.077 371.466 120.636 360.817C121.798 345.224 122.975 320.385 109.338 318.347C95.0858 315.297 76.0739 310.647 76.0739 310.647L71.6013 321.48Z" fill="#FB9C3B"/>
<path d="M35.9159 315.38C35.9159 315.38 14.5104 326.842 11.8569 331.465C9.20347 336.088 7.65789 334.72 8.65636 342.024C9.65483 349.328 14.9618 373.141 16.2475 381.183C17.5332 389.226 21.8963 423.953 21.8963 423.953C25.8268 425.661 29.8944 427.033 34.0558 428.056L6.08496 464.617C6.08496 464.617 16.6304 487.527 36.7776 488.238C56.9248 488.949 66.2667 469.349 74.9793 455.548C83.692 441.748 89.5323 423.091 89.5323 423.091L93.7587 422.312L92.1858 402.479L89.5323 402.89C89.5323 402.89 88.9716 375.233 77.2225 354.389C65.4733 333.544 35.9159 315.38 35.9159 315.38Z" fill="#FB9C3B"/>
<path opacity="0.2" d="M81.3121 314.135C81.3121 314.135 90.6266 318.895 91.584 324.885C92.5415 330.876 89.4777 338.303 93.9502 341.23C98.4228 344.157 103.675 344.773 106.26 352.569C108.845 360.365 108.066 396.42 106.26 402.602C104.455 408.784 101.883 402.602 101.883 402.602L98.9152 386.845L92.815 364.291L86.7832 347.358L81.3121 335.622L74.7468 322.259L81.3121 314.135Z" fill="black"/>
<path d="M93.3897 417.729C93.3897 417.729 102.102 418.878 105.016 417.62C107.929 416.362 110.487 415.733 112.538 409.988C114.59 404.243 118.42 402.479 122.537 402.205C126.654 401.932 135.968 400.113 137.582 395.626L133.547 395.339C134.935 394.946 136.216 394.245 137.295 393.287H135.599C135.599 393.287 127.502 389.034 123.371 388.008C119.24 386.982 114.823 385.915 110.924 389.28C107.026 392.645 104.934 399.894 103.347 401.781C101.76 403.669 97.5614 406.008 92.0493 405.994L93.3897 417.729Z" fill="white"/>
<path d="M93.9504 417.771C93.9504 417.771 105.768 419.836 109.707 415.199C113.646 410.562 112.279 403.997 121.032 402.479C129.786 400.961 137.199 399.06 137.61 395.64C137.61 395.64 119.61 393.93 115.725 397.008" stroke="#263238" stroke-width="1.06897" stroke-linecap="round" stroke-linejoin="round"/>
<path d="M134.176 395.23C135.415 394.96 136.536 394.304 137.377 393.356L129.293 391.81C126.462 391.263 123.631 390.319 120.704 390.443C118.07 390.75 115.662 392.081 114.002 394.149" stroke="#263238" stroke-width="1.06897" stroke-linecap="round" stroke-linejoin="round"/>
<path d="M135.161 392.494L125.792 388.925C121.483 387.283 116.409 385.697 112.484 388.118C110.903 389.219 109.582 390.652 108.613 392.317C107.483 394.07 106.473 395.898 105.59 397.788C105.011 399.236 104.267 400.612 103.374 401.891C100.817 405.119 96.8637 405.926 92.7467 406.104" stroke="#263238" stroke-width="1.06897" stroke-linecap="round" stroke-linejoin="round"/>
<path d="M34.3294 315.38C34.3294 315.38 46.2153 320.03 51.1529 325.953C51.1529 325.953 63.0662 334.05 68.0175 325.146C72.9688 316.242 73.4885 298.31 73.4885 298.31L78.0979 288.066L76.3198 260.587L63.4355 241.233L51.2076 232.247L37.9266 257.879L22.4982 268.383L24.2626 297.107L34.3294 315.38Z" fill="white"/>
<path d="M59.25 243.408C59.25 243.408 59.8244 265.456 41.8793 273.581C41.8793 273.581 36.6545 300.348 53.9567 306.01C53.9567 306.01 56.8837 318.525 44.4508 320.522C28.4069 312.658 31.2381 304.246 31.2381 304.246L25.6987 280.543L23.9343 264.608L44.4508 248.509L59.25 243.408Z" fill="#FB9C3B"/>
<path opacity="0.5" d="M59.25 243.408C59.25 243.408 59.8244 265.456 41.8793 273.581C41.8793 273.581 36.6545 300.348 53.9567 306.01C53.9567 306.01 56.8837 318.525 44.4508 320.522C28.4069 312.658 31.2381 304.246 31.2381 304.246L25.6987 280.543L23.9343 264.608L44.4508 248.509L59.25 243.408Z" fill="white"/>
<path d="M73.2423 255.02C73.2423 255.02 74.0083 257.509 73.2423 264.95C72.4764 272.391 74.3092 281.897 71.8746 288.571C69.4399 295.246 65.3093 305.422 53.9705 305.956C45.2715 305.956 36.1896 293.646 35.068 285.562C35.068 285.562 24.5772 280.638 25.8219 273.663C27.0666 266.687 33.796 268.561 35.5604 273.663" stroke="#263238" stroke-width="1.06897" stroke-linecap="round" stroke-linejoin="round"/>
<path d="M63.8049 268.862C62.9299 272.968 63.066 277.225 64.2016 281.267C64.5857 282.157 64.658 283.15 64.4067 284.085C64.2126 284.475 63.9248 284.81 63.569 285.06C63.2133 285.311 62.8009 285.469 62.3688 285.521C61.5055 285.612 60.6328 285.538 59.7974 285.302" stroke="#263238" stroke-width="1.06897" stroke-linecap="round" stroke-linejoin="round"/>
<path d="M59.2499 290.076C59.2499 290.076 54.3533 291.594 51.2896 288.065" stroke="#263238" stroke-width="1.06897" stroke-linecap="round" stroke-linejoin="round"/>
<path d="M35.9158 315.38C38.9522 307.666 33.2897 284.537 33.2897 284.537" stroke="#263238" stroke-width="1.06897" stroke-linecap="round" stroke-linejoin="round"/>
<path d="M54.8458 265.005C54.8458 265.005 47.7745 258.85 44.4645 267.959" stroke="#263238" stroke-width="1.06897" stroke-linecap="round" stroke-linejoin="round"/>
<path d="M65.0764 264.608C65.606 263.454 66.4557 262.476 67.5247 261.79C68.0671 261.463 68.6946 261.303 69.3277 261.333C69.9608 261.362 70.571 261.578 71.0809 261.955" stroke="#263238" stroke-width="1.06897" stroke-linecap="round" stroke-linejoin="round"/>
<path d="M52.712 276.179C53.3617 276.179 53.8883 274.991 53.8883 273.526C53.8883 272.061 53.3617 270.873 52.712 270.873C52.0624 270.873 51.5358 272.061 51.5358 273.526C51.5358 274.991 52.0624 276.179 52.712 276.179Z" fill="#263238"/>
<path d="M67.429 272.35C67.429 273.813 66.9092 275.003 66.2527 275.003C65.5962 275.003 65.0764 273.813 65.0764 272.35C65.0764 270.886 65.5962 269.696 66.2527 269.696C66.9092 269.696 67.429 270.886 67.429 272.35Z" fill="#263238"/>
<path d="M60.741 304.191C60.741 304.191 58.3064 309.061 62.1908 319.716" stroke="#263238" stroke-width="1.06897" stroke-linecap="round" stroke-linejoin="round"/>
<path d="M33.2901 269.696C33.2901 269.696 59.7153 259.903 59.2776 243.353C59.2776 243.353 63.6818 254.035 73.6118 259.547C73.6118 259.547 70.7669 244.42 67.4569 237.841C64.1469 231.262 44.3963 226.092 36.8326 227.692C29.2689 229.292 14.6885 232.329 11.6657 256.702C8.64294 281.076 11.6657 299.404 4.55332 309.184C-2.55906 318.963 -1.4922 335.869 8.83443 338.18C9.87428 334.955 11.6542 332.018 14.0319 329.604C17.7659 326.048 36.2855 315.735 36.2855 315.735C36.2855 315.735 37.0925 297.216 33.3174 284.536C33.3174 284.536 25.4118 282.102 25.8358 273.663C26.6017 267.097 33.2901 269.696 33.2901 269.696Z" fill="#263238"/>
<path d="M66.5543 236.569C70.4141 240.528 73.7013 245.007 76.3201 249.877C82.051 259.903 88.3838 271.214 91.2561 282.403C92.3718 286.833 92.592 291.441 91.9039 295.958C91.2157 300.474 89.633 304.808 87.2486 308.705C86.486 309.819 85.818 310.995 85.2516 312.22C84.6995 313.74 84.35 315.327 84.2121 316.939C83.7334 320.591 83.1726 324.379 81.1757 327.484C79.1787 330.589 75.3216 332.791 71.7791 331.724C68.3266 330.327 65.5413 327.659 63.9965 324.27C61.261 316.816 59.5376 312.069 60.7412 304.219C60.7412 304.219 73.2563 293.194 73.1606 280.515C73.0648 267.836 75.3216 259.096 70.1788 252.804C65.036 246.512 66.5543 236.569 66.5543 236.569Z" fill="#263238"/>
<path d="M36.2581 315.735C36.2581 315.735 18.9149 324.79 11.8572 331.465C4.79952 338.139 11.187 353.568 14.114 369.215C17.041 384.862 19.3115 399.771 21.8966 423.926C47.255 435.716 71.1362 426.141 93.759 422.257L92.1861 402.479C88.8898 402.657 71.6696 407.745 56.6242 403.3C48.8553 400.988 42.5225 404.353 37.1745 410.439" stroke="#263238" stroke-width="1.06897" stroke-linecap="round" stroke-linejoin="round"/>
<path d="M33.0846 405.187C40.8125 401.385 47.8017 399.716 54.9688 402.889" stroke="#263238" stroke-width="1.06897" stroke-linecap="round" stroke-linejoin="round"/>
<path d="M53.478 402.301C49.0054 390.224 47.9112 376.232 45.8322 362.923" stroke="#263238" stroke-width="1.06897" stroke-linecap="round" stroke-linejoin="round"/>
<path d="M21.8964 342.023C31.4219 347.551 38.8299 356.1 42.9463 366.315" stroke="#263238" stroke-width="1.06897" stroke-linecap="round" stroke-linejoin="round"/>
<path d="M39.1438 351.037L42.6316 357.739" stroke="#263238" stroke-width="1.06897" stroke-linecap="round" stroke-linejoin="round"/>
<path d="M35.916 315.38C35.916 315.38 70.37 335.185 80.5189 361.173C90.6677 387.16 89.2862 402.575 89.2862 402.575" stroke="#263238" stroke-width="1.06897" stroke-linecap="round" stroke-linejoin="round"/>
<path d="M35.9162 315.38C32.2369 323.286 35.6563 332.518 40.9222 338.81C46.3933 345.375 55.3521 348.931 63.6545 350.231C64.5572 350.367 65.6377 350.586 65.9386 351.448C66.0848 351.892 66.0848 352.371 65.9386 352.816C64.694 356.919 60.8642 360.174 60.9463 364.442C61.0938 366.196 61.5914 367.903 62.4098 369.461C67.0596 379.85 72.2975 389.965 78.0981 399.757" stroke="#263238" stroke-width="1.06897" stroke-linecap="round" stroke-linejoin="round"/>
<path opacity="0.5" d="M37.9267 237.171C36.358 246.15 33.1098 254.754 28.3524 262.529" stroke="white" stroke-width="1.06897" stroke-linecap="round" stroke-linejoin="round"/>
<path opacity="0.5" d="M22.4981 241.233C17.5468 252.791 19.8994 265.989 19.3796 278.559C18.8888 289.883 15.9884 300.971 10.8721 311.085" stroke="white" stroke-width="1.06897" stroke-linecap="round" stroke-linejoin="round"/>
<path d="M89.5325 423.078C89.5325 423.078 72.1072 470.225 55.3384 482.302C38.5696 494.379 19.9543 487.91 6.09882 464.617L34.0559 428.125" stroke="#263238" stroke-width="1.06897" stroke-linecap="round" stroke-linejoin="round"/>
<path d="M39.0754 429.547C41.756 440.003 47.9402 449.223 56.5965 455.671" stroke="#263238" stroke-width="1.06897" stroke-linecap="round" stroke-linejoin="round"/>
<path d="M35.6971 429.178C34.4303 436.844 34.8174 444.693 36.8323 452.197" stroke="#263238" stroke-width="1.06897" stroke-linecap="round" stroke-linejoin="round"/>
<path d="M65.0764 311.372C65.0764 311.372 80.9698 328.332 90.6536 357.739C100.337 387.146 101.815 403.3 101.815 403.3" stroke="#263238" stroke-width="1.06897" stroke-linecap="round" stroke-linejoin="round"/>
<path d="M52.7122 327.143C52.7122 327.143 62.9978 333.981 68.0722 325.146C73.1466 316.31 69.44 313.314 69.44 313.314" stroke="#263238" stroke-width="1.06897" stroke-linecap="round" stroke-linejoin="round"/>
<path d="M67.1555 310.114C70.3698 309.594 73.5977 310.716 76.6068 311.947C80.2261 313.285 83.6065 315.197 86.6188 317.609C89.6488 320.05 91.6385 323.55 92.1856 327.402C92.6096 331.629 90.8179 336.306 93.02 339.958C95.4819 344.062 101.596 344.431 104.482 348.233C105.733 350.18 106.476 352.409 106.643 354.717C108.486 368.154 108.546 381.776 106.821 395.23" stroke="#263238" stroke-width="1.06897" stroke-linecap="round" stroke-linejoin="round"/>
<path d="M104.304 335.732C107.929 338.904 110.958 342.697 113.25 346.934C115.542 351.218 116.142 356.207 114.932 360.913C114.412 362.609 113.564 364.209 113.154 365.919C112.764 367.561 112.53 369.238 112.456 370.925L111.089 388.706" stroke="#263238" stroke-width="1.06897" stroke-linecap="round" stroke-linejoin="round"/>
<path d="M71.6013 308.568C78.317 310.579 84.937 313.164 91.7759 314.628C98.6147 316.091 105.084 316.46 111.595 319.018C112.557 319.365 113.475 319.824 114.33 320.386C119.924 324.298 119.883 332.176 120.513 338.167C122.427 356.426 117.408 370.077 122.537 387.707" stroke="#263238" stroke-width="1.06897" stroke-linecap="round" stroke-linejoin="round"/>
<path d="M87.9462 427.728C87.9462 427.728 105.084 429.547 120.868 415.254" stroke="#263238" stroke-width="1.06897" stroke-linecap="round" stroke-linejoin="round"/>
<path opacity="0.5" d="M76.7299 329.714C73.5841 325.118 71.4367 319.551 72.2573 314.053C72.7908 310.483 74.5278 307.214 76.0871 303.986C78.2589 299.807 79.8554 295.353 80.8332 290.746C81.7948 286.114 81.3958 281.302 79.6843 276.891C78.2211 273.823 76.3585 270.962 74.1448 268.383" stroke="white" stroke-width="1.06897" stroke-linecap="round" stroke-linejoin="round"/>
<path d="M159.576 421.477L228.128 339.589L216.762 393.807L159.576 421.477Z" fill="#263238"/>
<path opacity="0.8" d="M159.576 421.477L228.128 339.589L216.762 393.807L159.576 421.477Z" fill="white"/>
<path d="M204.466 378.201C203.522 381.894 200.773 384.37 198.324 383.74C195.876 383.111 194.686 379.637 195.589 375.917C196.492 372.196 199.296 369.748 201.73 370.377C204.165 371.006 205.423 374.508 204.466 378.201Z" fill="#263238"/>
<path d="M159.576 421.477L172.816 360.693L228.128 339.589L216.762 393.807L159.576 421.477Z" stroke="#263238" stroke-width="1.06897" stroke-linecap="round" stroke-linejoin="round"/>
<path d="M157.333 420.164L170.299 359.777L226.323 338.714L228.388 339.234L172.816 360.694L159.576 421.477L157.333 420.164Z" fill="#263238"/>
<path opacity="0.2" d="M35.9158 315.38C35.9158 315.38 31.0466 328.798 40.9219 338.81C50.7971 348.822 65.9383 351.462 65.9383 351.462V352.829C65.9383 352.829 59.373 361.733 61.2195 366.315C63.066 370.897 80.0263 404.49 80.0263 404.49L89.6007 402.89C89.7827 387.218 86.1792 371.734 79.0962 357.753C67.1556 335.048 35.9158 315.38 35.9158 315.38Z" fill="black"/>
<path opacity="0.2" d="M31.279 431.735C31.279 431.735 31.9629 441.665 35.7379 447.465C35.7379 447.465 36.1756 440.161 36.7774 433.719C36.7774 433.719 42.3716 448.026 53.4094 453.073C53.4094 453.073 46.8989 440.161 44.7925 433.719C44.7925 433.719 66.9366 437.658 88.3285 426.429V423.31C88.3285 423.31 55.338 432.98 34.0556 428.125L31.279 431.735Z" fill="black"/>
<path opacity="0.2" d="M46.0649 364.906L59.7425 399.757L76.2651 405.228L58.1012 404.53C58.1012 404.53 49.6621 403.313 39.0893 409.017C39.0893 409.017 39.568 405.939 43.9448 403.34C43.9448 403.34 42.3719 401.809 35.7382 403.956C38.908 400.82 42.6139 398.277 46.6803 396.447L46.0649 364.906Z" fill="black"/>
<path opacity="0.2" d="M106.89 337.784C103.593 334.228 114.754 343.61 116.286 348.206C117.818 352.802 117.9 357.78 117.873 362.609C117.845 367.437 117.736 372.388 118.967 377.08C119.788 380.212 121.566 384.589 122.537 387.68C122.537 387.68 113.551 386.435 111.143 388.61L113.154 365.878C113.154 365.878 120.499 352.556 106.89 337.784Z" fill="black"/>
<path d="M137.609 395.627L160.957 383.932L166.032 385.067" stroke="#263238" stroke-width="1.06897" stroke-linecap="round" stroke-linejoin="round"/>
<path d="M159.015 416.225L117.722 405.337L129.581 400.728" stroke="#263238" stroke-width="1.06897" stroke-linecap="round" stroke-linejoin="round"/>
<path d="M165.471 388.309L126.954 407.621" stroke="#263238" stroke-width="1.06897" stroke-linecap="round" stroke-linejoin="round"/>
<path d="M164.883 395.626L136.201 410.015" stroke="#263238" stroke-width="1.06897" stroke-linecap="round" stroke-linejoin="round"/>
<path d="M163.638 402.834L144.544 412.409" stroke="#263238" stroke-width="1.06897" stroke-linecap="round" stroke-linejoin="round"/>
<path d="M123.904 401.959L161.094 411.602" stroke="#263238" stroke-width="1.06897" stroke-linecap="round" stroke-linejoin="round"/>
<path d="M134.464 398.909L162.886 406.295" stroke="#263238" stroke-width="1.06897" stroke-linecap="round" stroke-linejoin="round"/>
<path d="M140.222 394.327L163.638 400.4" stroke="#263238" stroke-width="1.06897" stroke-linecap="round" stroke-linejoin="round"/>
<path d="M147.348 390.757L164.883 395.312" stroke="#263238" stroke-width="1.06897" stroke-linecap="round" stroke-linejoin="round"/>
<path d="M154.652 387.379L166.032 390.32" stroke="#263238" stroke-width="1.06897" stroke-linecap="round" stroke-linejoin="round"/>
<path d="M197.627 427.372C205.177 429.998 211.305 432.843 211.305 432.843" stroke="white" stroke-width="1.06897" stroke-linecap="round" stroke-linejoin="round"/>
<path d="M101.815 444.469C101.815 444.469 167.358 422.243 179.777 423.064C182.814 423.315 185.822 423.841 188.764 424.637" stroke="white" stroke-width="1.06897" stroke-linecap="round" stroke-linejoin="round"/>
<path d="M112.853 440.831C115.588 437.795 117.298 436.222 118.789 433.773" stroke="white" stroke-width="1.06897" stroke-linecap="round" stroke-linejoin="round"/>
</svg>
