<svg width="108" height="110" viewBox="0 0 108 110" fill="none" xmlns="http://www.w3.org/2000/svg">
<g clip-path="url(#clip0)">
<path d="M46.6321 104.315C72.3863 104.315 93.2642 83.2439 93.2642 57.2512C93.2642 31.2585 72.3863 10.1873 46.6321 10.1873C20.8779 10.1873 0 31.2585 0 57.2512C0 83.2439 20.8779 104.315 46.6321 104.315Z" fill="#FD425F"/>
<path d="M81.7909 61.6375C84.1804 42.0503 70.3846 24.2168 50.9771 21.8052C31.5697 19.3935 13.8997 33.317 11.5103 52.9042C9.12074 72.4913 22.9166 90.3249 42.3239 92.7366C61.7314 95.1482 79.4014 81.2247 81.7909 61.6375Z" fill="white"/>
<path d="M52.4393 82.0852C66.0323 78.8458 74.4495 65.0985 71.2398 51.3798C68.0302 37.661 54.4091 29.1658 40.8161 32.4052C27.2232 35.6446 18.806 49.3918 22.0156 63.1106C25.2253 76.8294 38.8465 85.3246 52.4393 82.0852Z" fill="#FD425F"/>
<path d="M64.0266 57.2512C64.0266 66.9629 56.2545 74.8068 46.6321 74.8068C37.0095 74.8068 29.2375 66.9629 29.2375 57.2512C29.2375 47.5397 37.0095 39.6956 46.6321 39.6956C56.2545 39.6956 64.0266 47.5397 64.0266 57.2512Z" fill="white"/>
<path d="M54.6511 57.2512C54.6511 61.7335 51.0735 65.3442 46.6323 65.3442C42.1912 65.3442 38.6136 61.7335 38.6136 57.2512C38.6136 52.7689 42.1912 49.1581 46.6323 49.1581C51.0735 49.1581 54.6511 52.7689 54.6511 57.2512Z" fill="#FD425F"/>
<path d="M67.4807 36.2095C67.4807 36.2095 66.7405 37.828 66.8639 37.828C66.8639 37.828 65.877 37.33 65.7536 37.33C65.6302 37.33 64.7667 37.33 64.3966 37.2055C64.0265 37.081 63.7797 36.832 63.6564 36.832C63.533 36.7075 63.2862 36.4584 63.533 36.4584C63.6564 36.4584 63.9031 36.583 64.0265 36.7075C64.1499 36.7075 64.52 36.7075 64.52 36.7075C64.52 36.7075 64.3966 36.583 64.0265 36.583C63.6564 36.4584 63.163 36.2095 63.0396 36.0849C62.9162 35.9604 62.9162 35.7114 63.2863 35.836C63.6564 35.836 63.9031 36.0849 63.9031 36.0849L64.52 36.334C64.52 36.334 64.0265 36.2095 63.9031 36.0849C63.7797 35.9604 63.2863 35.836 62.9162 35.7114C62.6695 35.5869 62.6695 35.2134 62.9162 35.2134C63.163 35.2134 63.7797 35.5869 63.9031 35.5869C64.0265 35.5869 64.52 35.836 64.52 35.836C64.52 35.836 63.9031 35.5869 63.9031 35.4624C63.7797 35.3379 63.163 35.2134 63.163 34.9643C63.163 34.8399 63.163 34.7154 63.4096 34.7154C63.6564 34.7154 64.0265 34.8399 64.1499 34.9643C64.2732 35.0889 65.1368 35.4624 65.3835 35.4624C65.5069 35.4624 65.7536 35.4624 65.7536 35.2134L66.0004 34.5908C66.0004 34.5908 66.2471 34.7154 66.3705 35.2134C66.3705 35.5869 66.8639 35.9604 67.4807 36.2095Z" fill="#F88667"/>
<path d="M85.9859 42.8083C85.9859 41.4388 84.8756 40.3182 83.5185 40.0692C81.298 39.6956 77.1036 39.0731 75.87 38.824C74.1428 38.4505 67.1109 36.0849 67.1109 36.0849L66.3708 37.9525C66.3708 37.9525 74.0194 41.8123 75.4998 42.1858C76.8568 42.4348 84.012 45.0495 85.369 44.1779C85.8625 43.9288 85.9859 43.4309 85.9859 42.8083Z" fill="#00BAD1"/>
<path d="M91.6608 61.4845L91.1673 60.2394H71.1821L71.5523 61.4845H91.6608Z" fill="#110239"/>
<path d="M94.0043 68.7059L93.5108 67.3364H73.4023L73.8958 68.7059H94.0043Z" fill="#110239"/>
<path d="M88.5766 54.3875L88.2066 53.0179H68.098L68.5915 54.3875H88.5766Z" fill="#110239"/>
<path d="M96.3488 76.0518L95.9787 74.6823H75.7468L76.117 76.0518H96.3488Z" fill="#110239"/>
<path d="M98.816 83.3978L98.3225 81.9037H77.9673L78.4606 83.3978H98.816Z" fill="#110239"/>
<path d="M101.283 90.7437L100.79 89.3741H80.311L80.8045 90.7437H101.283Z" fill="#110239"/>
<path d="M103.751 98.3388L103.257 96.8448H82.7785L83.1486 98.3388H103.751Z" fill="#110239"/>
<path d="M106.094 109.171C106.835 109.171 107.328 108.548 107.081 107.926L88.2066 51.1503C88.0832 50.7768 87.7131 50.5278 87.343 50.5278H86.1093L105.231 108.424C105.354 108.922 105.601 109.171 106.094 109.171Z" fill="#110239"/>
<path d="M85.7389 109.171C86.4791 109.171 86.9725 108.548 86.7258 107.926L68.7144 51.1503C68.591 50.7768 68.221 50.5278 67.8509 50.5278C67.234 50.5278 66.7405 51.1503 66.9873 51.7729L84.8754 108.424C84.9986 108.797 85.2454 109.171 85.7389 109.171Z" fill="#110239"/>
<path d="M85.6156 33.9683L85.4922 34.0927C85.1221 34.4663 84.6286 34.8398 84.2586 35.2133C84.0118 35.4623 83.5183 35.5868 83.2716 35.7113C83.1483 35.8359 83.025 35.8359 83.025 35.9603C83.1482 36.7074 83.5183 38.824 83.5183 39.6955C83.5183 39.6955 86.1091 39.5711 86.9726 38.4505C86.8492 38.4505 85.8623 35.5868 85.6156 33.9683Z" fill="#F88667"/>
<path d="M84.2586 38.2015C84.382 37.4544 84.8753 36.7074 85.3688 36.3339C85.6156 36.2094 85.739 35.9603 85.9857 35.8359C85.8623 35.2133 85.6156 34.4663 85.6156 33.9683L85.4922 34.0927C85.1221 34.4663 84.6286 34.8398 84.2586 35.2133C84.0118 35.4623 83.5183 35.5868 83.2716 35.7113C83.1483 35.8359 83.025 35.8359 83.025 35.9603C83.1482 36.7074 83.5183 38.824 83.5183 39.6955C83.5183 39.6955 84.0118 39.6955 84.5053 39.5711C84.2586 39.0731 84.1352 38.6996 84.2586 38.2015Z" fill="#E45940"/>
<path d="M84.2583 79.538C84.2583 79.538 84.1349 82.0282 83.7648 82.4017C83.3947 82.7752 78.3367 82.8998 77.9666 82.4017C77.4731 81.9037 77.8432 81.1567 78.8301 80.9076C79.9405 80.5341 80.5573 80.9076 81.2975 80.6587C82.0376 80.4096 81.7909 79.1646 81.7909 79.1646L84.2583 79.538Z" fill="#110239"/>
<path d="M96.7185 79.4135C96.7185 79.4135 97.0886 81.9037 96.7185 82.2772C96.3485 82.6507 91.1671 83.0243 90.797 82.6507C90.3036 82.1527 90.5503 81.4057 91.6606 81.0322C92.7709 80.6587 93.3876 80.9076 94.1279 80.6587C94.7448 80.4096 94.3746 79.289 94.3746 79.289L96.7185 79.4135Z" fill="#110239"/>
<path d="M93.0175 65.2196C93.1409 58.1227 92.2774 53.267 91.9072 51.0258C91.0437 51.0258 90.1801 51.1503 89.44 51.5238C87.9596 52.2709 86.3558 52.8934 84.8754 53.6405C86.1091 56.2551 88.8231 64.7216 89.1932 66.5892C89.5633 68.8304 94.2511 80.1607 94.2511 80.1607L97.0885 79.787C96.8419 77.795 93.0175 65.8422 93.0175 65.2196Z" fill="#D0D1DE"/>
<path d="M87.3427 52.5199C86.4792 52.8935 85.739 53.267 84.8754 53.516C86.1091 56.1307 88.3296 63.2276 88.8231 65.0953C89.1932 63.8501 91.0437 60.9864 91.7839 57.8738C92.2774 55.7572 92.4007 53.6405 92.0306 51.3994C90.4268 51.524 88.9465 51.6484 87.3427 52.5199Z" fill="#ABADC4"/>
<path d="M89.3163 52.1464C88.206 52.5199 86.2322 53.0179 84.7518 53.6405C83.7648 56.2551 80.6808 62.4805 80.434 65.3442C80.3107 68.4569 81.2975 80.2851 81.2975 80.2851H84.5051C84.5051 80.2851 84.7518 66.9629 85.2452 66.0912C86.7256 63.2277 88.3293 60.9864 89.3163 59.2434C90.9201 56.2551 91.4135 54.3875 91.6602 53.0179C91.7836 52.3955 92.2771 50.4033 91.2901 49.7808C90.55 49.9053 90.3032 51.7729 89.3163 52.1464Z" fill="#D0D1DE"/>
<path d="M83.6417 54.1385C83.6417 54.1385 86.3557 55.259 88.9464 55.01C90.9203 54.7609 91.9073 54.761 93.0175 54.1385C93.0175 54.1385 91.7839 44.5514 90.4269 41.5631C89.0698 38.575 86.7259 37.9525 86.7259 37.9525C86.7259 37.9525 84.8754 39.0731 83.395 38.9485C83.395 38.9485 83.395 44.8004 83.5184 47.1661C83.6417 49.6562 83.6417 54.1385 83.6417 54.1385Z" fill="#00BAD1"/>
<path d="M83.5186 46.419C83.5186 46.1701 83.5186 45.921 83.5186 45.5475V45.423C83.5186 45.174 83.5186 44.8004 83.5186 44.5514V44.4269C83.5186 44.0534 83.5186 43.8044 83.5186 43.4308C83.642 43.4308 83.7654 43.4308 83.8888 43.4308C84.8757 43.3064 85.6159 42.6838 86.4794 42.1858C86.6028 42.0612 86.7261 42.0612 86.8495 41.9367C86.9729 43.1819 86.4794 44.676 86.2327 45.7965C85.6159 48.5357 85.2458 52.0219 85.7393 54.761C84.5055 54.5121 83.7654 54.1386 83.7654 54.1386C83.7654 54.1386 83.7654 49.5317 83.642 47.166C83.642 46.9171 83.642 46.668 83.642 46.419C83.5186 46.5436 83.5186 46.419 83.5186 46.419Z" fill="#00A7CC"/>
<path d="M86.973 31.6026C86.973 31.6026 85.8626 29.3615 84.5056 29.3615C83.0252 29.486 82.1617 29.7349 81.9149 30.233C81.6682 30.8556 81.4214 32.3497 81.0514 32.9722C80.6813 33.5947 79.9411 34.3418 79.9411 34.5908C79.9411 34.8399 80.8047 34.9643 80.8047 35.0888C80.8047 35.2134 81.2981 37.081 81.5448 37.3299C81.7916 37.579 84.629 36.4584 84.9991 35.5869C85.4926 34.5908 87.0963 32.9722 86.973 31.6026Z" fill="#F88667"/>
<path d="M84.0115 31.7271C83.8881 31.7271 83.6413 31.8516 83.6413 31.8516C83.3947 31.8516 83.2713 31.8516 83.0246 31.9762C82.6545 32.1007 82.1611 32.1007 81.7909 31.9762C81.1741 31.7271 81.4208 31.1046 81.0507 30.731C80.9273 30.4821 80.5573 30.482 80.4339 30.2331C80.3106 29.984 80.1872 29.7351 80.1872 29.3614C80.1872 28.739 80.8039 28.6144 81.2974 28.4899C81.9143 28.3654 81.9143 27.9919 82.1609 27.6184C82.9012 26.4977 83.8881 27.9919 84.6283 27.9919C84.9984 27.9919 85.4918 27.7429 85.862 27.8674C86.2321 28.1164 86.3555 28.3654 86.6022 28.739C86.849 28.9879 87.0956 28.8634 87.3424 29.1125C87.5891 29.237 87.8358 29.486 88.0826 29.6105C88.4526 30.1086 88.6994 30.731 88.576 31.3536C88.4526 31.8516 88.0826 32.1007 88.0826 32.7232C88.0826 33.0967 88.0826 33.7192 87.8358 34.0927C87.5891 34.7153 86.8488 34.7153 86.4788 35.0888C86.1087 35.4623 85.4918 35.7114 84.8751 35.5868C84.8751 35.2133 84.8751 34.4664 85.2452 34.3418C85.3685 34.2173 85.6152 34.2173 85.7386 34.0927C86.1087 33.7192 85.862 32.9722 85.1218 33.0967C84.6283 33.2212 84.5049 34.4663 84.0115 34.2173C83.6414 34.0927 84.1348 33.4703 84.1348 33.2212C84.2582 32.9722 84.3816 32.2251 84.1348 31.9762C84.1348 31.7271 84.1348 31.7271 84.0115 31.7271Z" fill="#110239"/>
<path d="M71.9217 54.2631C71.7983 54.2631 71.5516 54.2631 71.5516 54.2631C71.3048 54.3876 70.9348 54.2631 70.688 54.1385C70.3179 54.014 69.7011 53.765 69.331 53.765C69.0843 53.765 67.7273 54.1385 68.0973 54.7611C68.0973 54.8855 68.344 55.0101 68.344 54.8855C68.4674 54.8855 68.8375 54.6366 68.8375 54.6366C68.8375 54.6366 68.5908 54.7611 68.4674 54.7611C68.4674 54.7611 68.3441 54.8855 68.2207 54.8855C68.0973 55.0101 68.2207 55.2591 68.344 55.2591C68.4674 55.2591 68.5908 55.1346 68.7142 55.1346C68.5908 55.2591 68.4674 55.2591 68.5908 55.5081C68.7142 55.8816 68.8375 55.6326 68.9609 55.6326H69.0843L68.8375 55.7572C68.7142 55.8816 68.9609 56.2552 69.2077 56.2552C69.331 56.2552 69.701 56.0061 69.8244 56.0061C69.9478 56.0061 70.0712 56.0061 70.1945 56.0061C70.5647 56.0061 70.8114 56.0061 71.1814 55.7572C71.3048 55.7572 71.5516 55.6326 71.6749 55.5081C72.045 55.3836 72.2918 55.0101 72.4152 55.0101C72.2918 54.7611 71.9217 54.7611 71.9217 54.2631Z" fill="#F88667"/>
<path d="M72.4156 56.0062L71.3053 53.7651C71.3053 53.7651 76.8567 50.1543 78.8306 48.1622C80.8045 46.0455 83.025 41.9368 84.6287 41.6877C86.2325 41.4388 87.7129 42.3103 86.8494 44.4269C85.9858 46.5436 81.4212 49.5318 80.5577 50.4033C79.5707 51.2749 73.4025 55.5081 72.4156 56.0062Z" fill="#00BAD1"/>
<path d="M87.8359 3.09037C86.849 2.71685 83.6415 0.973736 81.1742 7.07461C78.7069 12.8019 76.2396 20.646 76.2396 20.646C76.2396 20.646 82.5312 15.4167 86.9724 11.0589C91.5369 6.45207 88.8229 3.7129 87.8359 3.09037Z" fill="#FD425F"/>
<path d="M82.4082 7.69708L76.3632 13.9225C74.5127 15.7901 72.909 17.9067 71.4286 20.0233L46.7555 57.1266L74.7595 26.6223C77.967 23.136 80.5577 19.2763 82.4082 14.9186L84.7521 9.68921C83.8885 9.31569 83.0249 8.56863 82.4082 7.69708Z" fill="#110239"/>
<path d="M75.1293 21.144C75.1293 21.144 71.0583 9.68925 74.8827 2.3433C78.707 -5.12717 83.6416 9.06671 83.6416 9.06671L75.1293 21.144Z" fill="#FD425F"/>
<path d="M75.1296 21.0194C75.1296 21.0194 87.2194 21.0194 92.771 14.9186C98.4457 8.81769 83.5185 8.81769 83.5185 8.81769L75.1296 21.0194Z" fill="#FD425F"/>
<path d="M66.1238 36.2094C66.0005 36.2094 65.8771 36.4584 65.8771 36.3339V36.0849C65.8771 35.8358 64.8902 35.8358 64.7668 35.7114C64.15 35.3379 64.3967 34.9643 64.6435 35.0888C64.8902 35.0888 65.2603 35.3379 65.3836 35.3379C65.507 35.4623 65.8771 35.3379 66.0005 35.4623C66.1238 35.4623 66.6173 35.9604 66.7407 35.9604C67.2341 36.2094 66.494 36.3339 66.1238 36.2094Z" fill="#F88667"/>
</g>
<defs>
<clipPath id="clip0">
<rect width="108" height="109" fill="white" transform="translate(0 0.170898)"/>
</clipPath>
</defs>
</svg>
