<svg width="216" height="51" viewBox="0 0 216 51" fill="none" xmlns="http://www.w3.org/2000/svg">
<g clip-path="url(#clip0)">
<path d="M99.9657 24.4052C105.773 25.2037 108.18 30.4349 108.18 34.5098C108.18 40.6772 104.529 47.0649 94.1302 47.0649H75.4622V4.63647H92.8856C100.795 4.63647 105.939 9.17943 105.939 16.0352C105.967 18.4305 104.667 23.1111 99.9657 24.4052ZM91.4199 21.0186C93.5771 21.0186 95.0152 19.6695 95.0152 17.5219C95.0152 15.3193 94.0196 13.6398 91.5581 13.6398H85.8609V21.0186H91.4199ZM85.8609 29.4437V38.0616H92.4708C95.6789 38.0616 97.2277 35.8589 97.2277 33.6838C97.2277 31.7015 95.8725 29.4437 92.4155 29.4437H85.8609Z" fill="#212121"/>
<path d="M115.287 47.0649V4.63647H142.916V13.6122H125.631V21.7345H140.841V30.5451H125.631V38.0616H143.496V47.0374H115.287V47.0649Z" fill="#212121"/>
<path d="M158.957 34.4548C159.15 36.7401 160.561 38.5848 164.211 38.5848C166.922 38.5848 169.466 37.4835 169.466 34.7577C169.466 34.0694 169.466 32.7202 165.207 31.261L160.201 29.609C150.688 27.0209 149.083 21.0462 149.083 17.109C149.083 9.42728 155.389 4.1134 163.99 4.1134C172.398 4.1134 178.648 8.98675 178.648 17.3568H168.332C168.332 15.0716 167.032 13.4196 163.88 13.4196C161.086 13.4196 159.372 14.7687 159.372 16.8061C159.372 17.6597 159.621 19.1464 163.326 20.2478L168.222 21.7896C179.422 25.2312 180.031 31.7015 180.031 34.7301C180.031 44.0914 171.43 47.6707 164.267 47.6707C154.67 47.6707 148.558 42.5495 148.558 34.5099H158.957V34.4548Z" fill="#212121"/>
<path d="M183.543 13.6398V4.63647H215.873V13.6122H204.866V47.0374H194.55V13.6398H183.543Z" fill="#212121"/>
<path d="M60.8874 12.3734C60.8874 15.5672 59.5875 18.4582 57.4856 20.5782C55.3838 22.6707 52.4799 23.9648 49.2717 23.9648H0.900879C3.47291 20.771 4.99401 16.7511 4.99401 12.3734C4.99401 7.96811 3.47291 3.94828 0.900879 0.781982H49.2441C55.6603 0.781982 60.8874 5.95819 60.8874 12.3734Z" fill="#0B409A"/>
<path d="M8.36808 12.3734C8.36808 16.641 7.1512 20.6058 5.02167 23.9648H0.900879C3.47291 20.771 4.99401 16.7511 4.99401 12.3734C4.99401 7.96811 3.47291 3.94828 0.900879 0.781982H5.04932C7.1512 4.14101 8.36808 8.10577 8.36808 12.3734Z" fill="#FFC200"/>
<path d="M60.8874 39.1909C60.8874 42.3847 59.5875 45.2757 57.4856 47.3957C55.3838 49.4882 52.4799 50.7823 49.2717 50.7823H0.900879C3.47291 47.616 4.99401 43.5686 4.99401 39.1909C4.99401 34.8131 3.44526 30.7658 0.900879 27.5995H49.2441C55.6603 27.627 60.8874 32.8032 60.8874 39.1909Z" fill="#0B409A"/>
<path d="M8.36808 39.1909C8.36808 43.4585 7.1512 47.4233 5.02167 50.7823H0.900879C3.47291 47.616 4.99401 43.5686 4.99401 39.1909C4.99401 34.8131 3.44526 30.7658 0.900879 27.5995H5.04932C7.1512 30.9861 8.36808 34.9508 8.36808 39.1909Z" fill="#FFC200"/>
</g>
<defs>
<clipPath id="clip0">
<rect width="215" height="50" fill="white" transform="translate(0.900879 0.781982)"/>
</clipPath>
</defs>
</svg>
