<svg width="41" height="41" viewBox="0 0 41 41" fill="none" xmlns="http://www.w3.org/2000/svg">
<path d="M13.9191 13.7051C14.0425 12.0228 15.4465 10.6963 17.1603 10.6963H26.1603C28.7837 10.6963 30.9103 12.8229 30.9103 15.4463V21.4463C30.9103 23.1601 29.5838 24.5641 27.9015 24.6875C27.7781 26.3698 26.3741 27.6963 24.6603 27.6963H19.577L15.9103 30.4463C15.0863 31.0643 13.9103 30.4764 13.9103 29.4463V27.6868C12.2322 27.5592 10.9103 26.1571 10.9103 24.4463V16.9463C10.9103 15.2325 12.2368 13.8285 13.9191 13.7051ZM15.428 13.6963H24.6603C26.4552 13.6963 27.9103 15.1514 27.9103 16.9463V23.1786C28.7584 23.0573 29.4103 22.3279 29.4103 21.4463V15.4463C29.4103 13.6514 27.9552 12.1963 26.1603 12.1963H17.1603C16.2787 12.1963 15.5493 12.8482 15.428 13.6963ZM14.1603 26.1963H15.4103V28.9463L19.077 26.1963H24.6603C25.6268 26.1963 26.4103 25.4128 26.4103 24.4463V16.9463C26.4103 15.9798 25.6268 15.1963 24.6603 15.1963H14.1603C13.1938 15.1963 12.4103 15.9798 12.4103 16.9463V24.4463C12.4103 25.4128 13.1938 26.1963 14.1603 26.1963Z" fill="#FEFCFA"/>
</svg>
