<svg width="123" height="57" viewBox="0 0 123 57" fill="none" xmlns="http://www.w3.org/2000/svg">
<g clip-path="url(#clip0)">
<path d="M86.7306 3.13358L80.7862 10.1239L76.696 14.9448H76.6252L61.5521 14.9873L61.5379 10.1664L72.5349 10.1239H74.4598L76.6677 7.5291L83.0508 0L86.7306 3.13358Z" fill="#F78411"/>
<path d="M91.7835 10.1666L91.7693 14.9875L76.6962 14.9449L80.7864 10.124L91.7835 10.1666Z" fill="#F78411"/>
<path d="M76.6677 7.52911L74.4598 10.1239H72.5349L66.5906 3.13358L70.2704 0L76.6677 7.52911Z" fill="#F78411"/>
<path d="M4.67052 36.8659C3.27261 36.1109 2.11138 34.9819 1.31621 33.6047C0.40657 32.0095 -0.048709 30.1949 -3.19581e-05 28.3584C-0.0568911 26.5049 0.393387 24.671 1.30206 23.0554C2.10687 21.6624 3.28962 20.5266 4.71298 19.78C6.09931 19.0605 7.63821 18.686 9.19954 18.6883C11.1864 18.6618 13.1196 19.3341 14.6627 20.5883V19.0286H19.8144V37.6315H14.6627V35.689C13.9238 36.4651 13.0271 37.0731 12.0333 37.4719C11.0394 37.8706 9.9717 38.0508 8.90232 38.0002C7.41902 37.9841 5.96365 37.594 4.67052 36.8659V36.8659ZM13.3606 32.4703C13.795 32.0526 14.1358 31.547 14.3603 30.9872C14.5848 30.4274 14.6879 29.8261 14.6627 29.2233V27.4368C14.6841 26.8353 14.5778 26.2361 14.3509 25.6788C14.124 25.1215 13.7816 24.6188 13.3464 24.2039C12.4653 23.3802 11.2959 22.937 10.0912 22.9703C9.44358 22.9451 8.79805 23.0585 8.19766 23.303C7.59727 23.5475 7.05584 23.9175 6.60951 24.3883C5.65447 25.4812 5.17096 26.9089 5.26495 28.3584C5.22861 29.0766 5.335 29.7949 5.57796 30.4715C5.82092 31.1482 6.19561 31.7698 6.68027 32.3002C7.13472 32.7681 7.6816 33.1359 8.28599 33.3801C8.89037 33.6242 9.53894 33.7393 10.1903 33.7181C11.3686 33.7298 12.5053 33.2824 13.3606 32.4703Z" fill="#212121"/>
<path d="M24.4565 10.4785H29.7215V37.6315H24.4565V10.4785Z" fill="#212121"/>
<path d="M34.562 16.0933C34.2778 15.817 34.0518 15.4864 33.8975 15.1211C33.7433 14.7557 33.6638 14.3631 33.6638 13.9664C33.6638 13.5697 33.7433 13.177 33.8975 12.8117C34.0518 12.4463 34.2778 12.1158 34.562 11.8395C34.8387 11.5566 35.169 11.3318 35.5335 11.1783C35.8981 11.0248 36.2895 10.9458 36.6849 10.9458C37.0804 10.9458 37.4718 11.0248 37.8363 11.1783C38.2009 11.3318 38.5312 11.5566 38.8079 11.8395C39.0886 12.1177 39.3115 12.449 39.4636 12.814C39.6157 13.1791 39.694 13.5708 39.694 13.9664C39.694 14.362 39.6157 14.7537 39.4636 15.1187C39.3115 15.4838 39.0886 15.815 38.8079 16.0933C38.5312 16.3762 38.2009 16.601 37.8363 16.7545C37.4718 16.9079 37.0804 16.987 36.6849 16.987C36.2895 16.987 35.8981 16.9079 35.5335 16.7545C35.169 16.601 34.8387 16.3762 34.562 16.0933V16.0933ZM34.0808 19.0283H39.275V37.6313H34.0808V19.0283Z" fill="#212121"/>
<path d="M46.9886 36.5818C46.4486 36.0216 46.0342 35.3523 45.773 34.6188C45.5119 33.8852 45.41 33.1043 45.4742 32.3281V23.3386H42.1624V19.0848H45.4742V13.7109H46.1394L50.626 15.2706V19.0281H54.5606V23.2818H50.626V31.7893C50.6025 32.0498 50.6373 32.3122 50.7279 32.5575C50.8185 32.8028 50.9626 33.0248 51.1496 33.2072C51.5475 33.5345 52.0504 33.7058 52.565 33.6893C53.0708 33.6727 53.5715 33.5819 54.051 33.4199L54.3058 33.5759V37.5602C53.2331 37.8049 52.1365 37.9285 51.0364 37.9289C49.5654 38.0109 48.1182 37.5294 46.9886 36.5818V36.5818Z" fill="#212121"/>
<path d="M61.453 36.8657C60.0175 36.0826 58.838 34.901 58.0563 33.4628C57.2073 31.8984 56.7828 30.1384 56.8249 28.3583C56.7924 26.5954 57.248 24.8581 58.1412 23.3389C58.9767 21.881 60.1893 20.676 61.6512 19.8508C63.0877 19.0343 64.7126 18.6089 66.3642 18.6172C68.0577 18.5835 69.7324 18.9785 71.2329 19.7657C72.6271 20.5271 73.7685 21.6804 74.5164 23.0837C75.3247 24.6555 75.7239 26.4064 75.677 28.1739V29.5919H61.722C61.7802 30.7578 62.2875 31.8557 63.1373 32.6545C64.0485 33.4364 65.2223 33.8419 66.4208 33.7889C67.3441 33.8657 68.2663 33.6272 69.0372 33.1124C69.8081 32.5975 70.3824 31.8365 70.6668 30.9531L75.0118 31.3926L75.2666 31.8322C74.7104 33.7048 73.5445 35.3371 71.9547 36.4687C70.2693 37.5506 68.2937 38.0899 66.2934 38.0142C64.6094 38.0439 62.9449 37.6489 61.453 36.8657V36.8657ZM70.7658 26.2456C70.7237 25.7261 70.5765 25.2206 70.3332 24.7599C70.0898 24.2992 69.7555 23.8929 69.3505 23.5657C68.4859 22.8822 67.4085 22.5258 66.3076 22.559C65.277 22.5611 64.2781 22.9163 63.4769 23.5657C62.6499 24.2418 62.0925 25.1927 61.9059 26.2456H70.7658Z" fill="#212121"/>
<path d="M83.0085 36.7662C81.5501 35.9666 80.3404 34.7792 79.5126 33.3348C78.634 31.8258 78.1837 30.1048 78.2105 28.358C78.1785 26.6016 78.629 24.8701 79.5126 23.3528C80.33 21.8823 81.5407 20.6694 83.0085 19.8505C84.5154 19.0177 86.2129 18.5926 87.9338 18.6169C90.1087 18.5336 92.248 19.1881 94.0055 20.4744C95.6023 21.7225 96.6772 23.5224 97.0201 25.5222L96.7229 25.8908L92.4769 26.3445C92.2251 25.4394 91.6705 24.6485 90.9059 24.1043C90.0391 23.4909 88.9941 23.1818 87.9338 23.2251C87.3067 23.2126 86.684 23.3324 86.1061 23.5767C85.5282 23.821 85.0081 24.1843 84.5795 24.6431C83.6649 25.6575 83.1869 26.9925 83.2491 28.358C83.2058 29.0505 83.3012 29.7447 83.5297 30.3997C83.7581 31.0547 84.1151 31.6574 84.5795 32.1722C85.0137 32.6188 85.5366 32.9694 86.1143 33.2014C86.692 33.4334 87.3118 33.5417 87.9338 33.5192C88.9397 33.5635 89.9329 33.2799 90.7644 32.711C91.5387 32.0913 92.0983 31.2429 92.3637 30.2863L96.6097 30.7401L96.9069 31.0662C96.4669 33.1012 95.3427 34.9232 93.7224 36.2274C92.0115 37.4719 89.9335 38.1059 87.8205 38.0281C86.1355 38.0243 84.4793 37.59 83.0085 36.7662V36.7662Z" fill="#212121"/>
<path d="M100.657 10.4785H105.866V21.3397C106.66 20.5005 107.625 19.8427 108.696 19.4114C109.83 18.9129 111.054 18.6569 112.291 18.6599C114.08 18.5802 115.828 19.2064 117.16 20.4039C117.783 21.0158 118.271 21.7527 118.59 22.5664C118.91 23.38 119.054 24.2521 119.014 25.1255V37.6315H113.806V26.43C113.838 25.978 113.773 25.5244 113.617 25.0991C113.461 24.6738 113.216 24.2865 112.9 23.9628C112.251 23.3858 111.403 23.0856 110.536 23.1263C109.624 23.1246 108.727 23.359 107.932 23.8069C107.104 24.2932 106.397 24.9624 105.866 25.7636V37.6315H100.657V10.4785Z" fill="#212121"/>
</g>
<path d="M2.856 53.12C2.144 53.12 1.568 52.944 1.128 52.592C0.688 52.24 0.44 51.752 0.384 51.128H1.38C1.468 51.456 1.624 51.712 1.848 51.896C2.08 52.072 2.424 52.16 2.88 52.16C3.216 52.16 3.5 52.084 3.732 51.932C3.972 51.78 4.092 51.572 4.092 51.308C4.092 51.052 3.96 50.848 3.696 50.696C3.44 50.544 2.996 50.388 2.364 50.228C1.756 50.076 1.308 49.864 1.02 49.592C0.74 49.32 0.6 48.956 0.6 48.5C0.6 48.212 0.684 47.944 0.852 47.696C1.028 47.448 1.268 47.252 1.572 47.108C1.884 46.956 2.236 46.88 2.628 46.88C3.276 46.88 3.8 47.044 4.2 47.372C4.6 47.7 4.828 48.168 4.884 48.776H3.84C3.8 48.456 3.672 48.212 3.456 48.044C3.24 47.876 2.964 47.792 2.628 47.792C2.364 47.792 2.128 47.852 1.92 47.972C1.712 48.084 1.608 48.252 1.608 48.476C1.608 48.692 1.728 48.872 1.968 49.016C2.208 49.152 2.612 49.296 3.18 49.448C3.844 49.624 4.332 49.844 4.644 50.108C4.964 50.372 5.124 50.728 5.124 51.176C5.124 51.544 5.028 51.876 4.836 52.172C4.652 52.468 4.388 52.7 4.044 52.868C3.7 53.036 3.304 53.12 2.856 53.12ZM9.14213 53.12C8.54213 53.12 8.00613 52.988 7.53413 52.724C7.07013 52.452 6.70613 52.08 6.44213 51.608C6.18613 51.128 6.05813 50.592 6.05813 50C6.05813 49.408 6.18613 48.876 6.44213 48.404C6.70613 47.924 7.07013 47.552 7.53413 47.288C8.00613 47.016 8.54213 46.88 9.14213 46.88C9.74213 46.88 10.2741 47.016 10.7381 47.288C11.2101 47.552 11.5741 47.924 11.8301 48.404C12.0941 48.876 12.2261 49.408 12.2261 50C12.2261 50.592 12.0941 51.128 11.8301 51.608C11.5741 52.08 11.2101 52.452 10.7381 52.724C10.2741 52.988 9.74213 53.12 9.14213 53.12ZM9.14213 52.16C9.73413 52.16 10.2181 51.972 10.5941 51.596C10.9781 51.22 11.1701 50.688 11.1701 50C11.1701 49.312 10.9781 48.78 10.5941 48.404C10.2181 48.028 9.73413 47.84 9.14213 47.84C8.55013 47.84 8.06213 48.028 7.67813 48.404C7.30213 48.78 7.11413 49.312 7.11413 50C7.11413 50.688 7.30213 51.22 7.67813 51.596C8.06213 51.972 8.55013 52.16 9.14213 52.16ZM16.1831 53.12C15.6151 53.12 15.1031 52.992 14.6471 52.736C14.1911 52.472 13.8311 52.104 13.5671 51.632C13.3111 51.16 13.1831 50.616 13.1831 50C13.1831 49.384 13.3111 48.84 13.5671 48.368C13.8311 47.896 14.1911 47.532 14.6471 47.276C15.1031 47.012 15.6151 46.88 16.1831 46.88C16.9591 46.88 17.5991 47.084 18.1031 47.492C18.6071 47.892 18.9111 48.452 19.0151 49.172H18.0191C17.9231 48.748 17.7191 48.42 17.4071 48.188C17.0951 47.956 16.6911 47.84 16.1951 47.84C15.6191 47.84 15.1471 48.036 14.7791 48.428C14.4191 48.812 14.2391 49.336 14.2391 50C14.2391 50.664 14.4191 51.192 14.7791 51.584C15.1471 51.968 15.6191 52.16 16.1951 52.16C16.6911 52.16 17.0951 52.044 17.4071 51.812C17.7191 51.58 17.9231 51.252 18.0191 50.828H19.0151C18.9111 51.548 18.6071 52.112 18.1031 52.52C17.5991 52.92 16.9591 53.12 16.1831 53.12ZM20.82 46.088C20.62 46.088 20.448 46.02 20.304 45.884C20.168 45.74 20.1 45.568 20.1 45.368C20.1 45.168 20.168 45 20.304 44.864C20.448 44.72 20.62 44.648 20.82 44.648C21.02 44.648 21.188 44.72 21.324 44.864C21.468 45 21.54 45.168 21.54 45.368C21.54 45.568 21.468 45.74 21.324 45.884C21.188 46.02 21.02 46.088 20.82 46.088ZM20.292 47H21.348V53H20.292V47ZM24.5487 53.12C23.9807 53.12 23.5207 52.964 23.1687 52.652C22.8167 52.332 22.6407 51.908 22.6407 51.38C22.6407 50.82 22.8327 50.38 23.2167 50.06C23.6007 49.74 24.0847 49.552 24.6687 49.496L26.5407 49.304V48.896C26.5407 48.552 26.4167 48.292 26.1687 48.116C25.9287 47.932 25.6087 47.84 25.2087 47.84C24.8727 47.84 24.5887 47.92 24.3567 48.08C24.1327 48.24 23.9807 48.484 23.9007 48.812H22.9047C22.9927 48.18 23.2607 47.7 23.7087 47.372C24.1647 47.044 24.6887 46.88 25.2807 46.88C25.9847 46.88 26.5447 47.056 26.9607 47.408C27.3847 47.752 27.5967 48.208 27.5967 48.776V51.584C27.5967 51.784 27.6407 51.94 27.7287 52.052C27.8167 52.156 27.9487 52.208 28.1247 52.208C28.2287 52.208 28.3327 52.192 28.4367 52.16V52.952C28.1967 53.032 27.9727 53.072 27.7647 53.072C27.1167 53.072 26.7207 52.76 26.5767 52.136C26.3447 52.4 26.0447 52.632 25.6767 52.832C25.3087 53.024 24.9327 53.12 24.5487 53.12ZM24.6687 52.16C25.2927 52.16 25.9167 51.848 26.5407 51.224V50.144L24.7407 50.348C24.4047 50.388 24.1447 50.5 23.9607 50.684C23.7847 50.86 23.6967 51.076 23.6967 51.332C23.6967 51.604 23.7847 51.812 23.9607 51.956C24.1447 52.092 24.3807 52.16 24.6687 52.16ZM29.585 44.24H30.641V53H29.585V44.24ZM34.7412 47H35.7972V47.708C36.3092 47.156 36.9172 46.88 37.6212 46.88C37.9972 46.88 38.3012 46.952 38.5332 47.096C38.7732 47.232 38.9692 47.448 39.1212 47.744C39.7452 47.168 40.4092 46.88 41.1132 46.88C41.7052 46.88 42.1452 47.028 42.4332 47.324C42.7292 47.612 42.8772 48.004 42.8772 48.5V53H41.8212V48.812C41.8212 48.5 41.7372 48.256 41.5692 48.08C41.4092 47.904 41.1692 47.816 40.8492 47.816C40.2492 47.816 39.7452 48.1 39.3372 48.668V53H38.2812V48.86C38.2812 48.164 37.9612 47.816 37.3212 47.816C37.0492 47.816 36.7812 47.908 36.5172 48.092C36.2532 48.276 36.0132 48.516 35.7972 48.812V53H34.7412V47ZM47.0252 53.12C46.4252 53.12 45.9052 52.992 45.4652 52.736C45.0252 52.472 44.6852 52.108 44.4452 51.644C44.2132 51.172 44.0972 50.624 44.0972 50C44.0972 49.392 44.2292 48.852 44.4932 48.38C44.7572 47.908 45.1132 47.54 45.5612 47.276C46.0092 47.012 46.4972 46.88 47.0252 46.88C47.5612 46.88 48.0412 47.004 48.4652 47.252C48.8972 47.492 49.2332 47.84 49.4732 48.296C49.7212 48.752 49.8452 49.296 49.8452 49.928V50.336H45.1652C45.1812 50.904 45.3572 51.352 45.6932 51.68C46.0372 52 46.4852 52.16 47.0372 52.16C47.4932 52.16 47.8732 52.052 48.1772 51.836C48.4812 51.612 48.6892 51.316 48.8012 50.948H49.7852C49.6172 51.628 49.2972 52.16 48.8252 52.544C48.3532 52.928 47.7532 53.12 47.0252 53.12ZM48.8492 49.424C48.8092 48.92 48.6172 48.532 48.2732 48.26C47.9372 47.98 47.5212 47.84 47.0252 47.84C46.5452 47.84 46.1372 47.98 45.8012 48.26C45.4652 48.54 45.2572 48.928 45.1772 49.424H48.8492ZM53.478 53.12C52.982 53.12 52.522 52.992 52.098 52.736C51.682 52.48 51.35 52.116 51.102 51.644C50.854 51.172 50.73 50.624 50.73 50C50.73 49.376 50.846 48.828 51.078 48.356C51.31 47.884 51.634 47.52 52.05 47.264C52.466 47.008 52.934 46.88 53.454 46.88C53.838 46.88 54.198 46.948 54.534 47.084C54.878 47.212 55.162 47.396 55.386 47.636V44.24H56.442V53H55.386V52.34C55.178 52.556 54.914 52.74 54.594 52.892C54.274 53.044 53.902 53.12 53.478 53.12ZM53.646 52.16C53.958 52.16 54.246 52.088 54.51 51.944C54.782 51.8 54.994 51.608 55.146 51.368C55.306 51.128 55.386 50.868 55.386 50.588V49.436C55.386 49.156 55.306 48.896 55.146 48.656C54.986 48.408 54.774 48.212 54.51 48.068C54.246 47.916 53.958 47.84 53.646 47.84C53.102 47.84 52.654 48.02 52.302 48.38C51.958 48.74 51.786 49.28 51.786 50C51.786 50.72 51.958 51.26 52.302 51.62C52.654 51.98 53.102 52.16 53.646 52.16ZM58.5544 46.088C58.3544 46.088 58.1824 46.02 58.0384 45.884C57.9024 45.74 57.8344 45.568 57.8344 45.368C57.8344 45.168 57.9024 45 58.0384 44.864C58.1824 44.72 58.3544 44.648 58.5544 44.648C58.7544 44.648 58.9224 44.72 59.0584 44.864C59.2024 45 59.2744 45.168 59.2744 45.368C59.2744 45.568 59.2024 45.74 59.0584 45.884C58.9224 46.02 58.7544 46.088 58.5544 46.088ZM58.0264 47H59.0824V53H58.0264V47ZM62.2831 53.12C61.7151 53.12 61.2551 52.964 60.9031 52.652C60.5511 52.332 60.3751 51.908 60.3751 51.38C60.3751 50.82 60.5671 50.38 60.9511 50.06C61.3351 49.74 61.8191 49.552 62.4031 49.496L64.2751 49.304V48.896C64.2751 48.552 64.1511 48.292 63.9031 48.116C63.6631 47.932 63.3431 47.84 62.9431 47.84C62.6071 47.84 62.3231 47.92 62.0911 48.08C61.8671 48.24 61.7151 48.484 61.6351 48.812H60.6391C60.7271 48.18 60.9951 47.7 61.4431 47.372C61.8991 47.044 62.4231 46.88 63.0151 46.88C63.7191 46.88 64.2791 47.056 64.6951 47.408C65.1191 47.752 65.3311 48.208 65.3311 48.776V51.584C65.3311 51.784 65.3751 51.94 65.4631 52.052C65.5511 52.156 65.6831 52.208 65.8591 52.208C65.9631 52.208 66.0671 52.192 66.1711 52.16V52.952C65.9311 53.032 65.7071 53.072 65.4991 53.072C64.8511 53.072 64.4551 52.76 64.3111 52.136C64.0791 52.4 63.7791 52.632 63.4111 52.832C63.0431 53.024 62.6671 53.12 62.2831 53.12ZM62.4031 52.16C63.0271 52.16 63.6511 51.848 64.2751 51.224V50.144L62.4751 50.348C62.1391 50.388 61.8791 50.5 61.6951 50.684C61.5191 50.86 61.4311 51.076 61.4311 51.332C61.4311 51.604 61.5191 51.812 61.6951 51.956C61.8791 52.092 62.1151 52.16 62.4031 52.16ZM69.8389 47H70.8949V47.708C71.4069 47.156 72.0149 46.88 72.7189 46.88C73.0949 46.88 73.3989 46.952 73.6309 47.096C73.8709 47.232 74.0669 47.448 74.2189 47.744C74.8429 47.168 75.5069 46.88 76.2109 46.88C76.8029 46.88 77.2429 47.028 77.5309 47.324C77.8269 47.612 77.9749 48.004 77.9749 48.5V53H76.9189V48.812C76.9189 48.5 76.8349 48.256 76.6669 48.08C76.5069 47.904 76.2669 47.816 75.9469 47.816C75.3469 47.816 74.8429 48.1 74.4349 48.668V53H73.3789V48.86C73.3789 48.164 73.0589 47.816 72.4189 47.816C72.1469 47.816 71.8789 47.908 71.6149 48.092C71.3509 48.276 71.1109 48.516 70.8949 48.812V53H69.8389V47ZM81.1268 53.12C80.5588 53.12 80.0988 52.964 79.7468 52.652C79.3948 52.332 79.2188 51.908 79.2188 51.38C79.2188 50.82 79.4108 50.38 79.7948 50.06C80.1788 49.74 80.6628 49.552 81.2468 49.496L83.1188 49.304V48.896C83.1188 48.552 82.9948 48.292 82.7468 48.116C82.5068 47.932 82.1868 47.84 81.7868 47.84C81.4508 47.84 81.1668 47.92 80.9348 48.08C80.7108 48.24 80.5588 48.484 80.4788 48.812H79.4828C79.5708 48.18 79.8388 47.7 80.2868 47.372C80.7428 47.044 81.2668 46.88 81.8588 46.88C82.5628 46.88 83.1228 47.056 83.5388 47.408C83.9628 47.752 84.1748 48.208 84.1748 48.776V51.584C84.1748 51.784 84.2188 51.94 84.3068 52.052C84.3948 52.156 84.5268 52.208 84.7028 52.208C84.8068 52.208 84.9108 52.192 85.0148 52.16V52.952C84.7748 53.032 84.5508 53.072 84.3428 53.072C83.6948 53.072 83.2988 52.76 83.1548 52.136C82.9228 52.4 82.6228 52.632 82.2548 52.832C81.8868 53.024 81.5108 53.12 81.1268 53.12ZM81.2468 52.16C81.8708 52.16 82.4948 51.848 83.1188 51.224V50.144L81.3188 50.348C80.9828 50.388 80.7228 50.5 80.5388 50.684C80.3628 50.86 80.2748 51.076 80.2748 51.332C80.2748 51.604 80.3628 51.812 80.5388 51.956C80.7228 52.092 80.9588 52.16 81.2468 52.16ZM86.1631 47H87.2191V47.78C87.4511 47.516 87.7151 47.3 88.0111 47.132C88.3071 46.964 88.6311 46.88 88.9831 46.88C89.1911 46.88 89.3511 46.912 89.4631 46.976L89.2951 47.852C89.1991 47.828 89.0711 47.816 88.9111 47.816C88.5751 47.816 88.2591 47.916 87.9631 48.116C87.6671 48.316 87.4191 48.6 87.2191 48.968V53H86.1631V47ZM90.5693 44.24H91.6253V49.16L93.7493 47H95.1173L92.4413 49.7L95.3693 53H94.0253L91.6253 50.312V53H90.5693V44.24ZM98.5408 53.12C97.9408 53.12 97.4208 52.992 96.9808 52.736C96.5408 52.472 96.2008 52.108 95.9608 51.644C95.7288 51.172 95.6128 50.624 95.6128 50C95.6128 49.392 95.7448 48.852 96.0088 48.38C96.2728 47.908 96.6288 47.54 97.0768 47.276C97.5248 47.012 98.0128 46.88 98.5408 46.88C99.0768 46.88 99.5568 47.004 99.9808 47.252C100.413 47.492 100.749 47.84 100.989 48.296C101.237 48.752 101.361 49.296 101.361 49.928V50.336H96.6808C96.6968 50.904 96.8728 51.352 97.2088 51.68C97.5528 52 98.0008 52.16 98.5528 52.16C99.0088 52.16 99.3888 52.052 99.6928 51.836C99.9968 51.612 100.205 51.316 100.317 50.948H101.301C101.133 51.628 100.813 52.16 100.341 52.544C99.8688 52.928 99.2688 53.12 98.5408 53.12ZM100.365 49.424C100.325 48.92 100.133 48.532 99.7888 48.26C99.4528 47.98 99.0368 47.84 98.5408 47.84C98.0608 47.84 97.6528 47.98 97.3168 48.26C96.9808 48.54 96.7728 48.928 96.6928 49.424H100.365ZM104.577 53.12C104.113 53.12 103.749 52.992 103.485 52.736C103.229 52.472 103.101 52.096 103.101 51.608V47.96H101.913V47H103.101V45.2L104.157 45.584V47H105.597V47.96H104.157V51.536C104.157 51.744 104.217 51.904 104.337 52.016C104.465 52.128 104.653 52.184 104.901 52.184C105.053 52.184 105.185 52.176 105.297 52.16C105.417 52.136 105.497 52.12 105.537 52.112V53C105.225 53.08 104.905 53.12 104.577 53.12ZM107.351 46.088C107.151 46.088 106.979 46.02 106.835 45.884C106.699 45.74 106.631 45.568 106.631 45.368C106.631 45.168 106.699 45 106.835 44.864C106.979 44.72 107.151 44.648 107.351 44.648C107.551 44.648 107.719 44.72 107.855 44.864C107.999 45 108.071 45.168 108.071 45.368C108.071 45.568 107.999 45.74 107.855 45.884C107.719 46.02 107.551 46.088 107.351 46.088ZM106.823 47H107.879V53H106.823V47ZM109.46 47H110.516V47.78C110.748 47.532 111.052 47.32 111.428 47.144C111.804 46.968 112.2 46.88 112.616 46.88C113.248 46.88 113.736 47.056 114.08 47.408C114.424 47.76 114.596 48.244 114.596 48.86V53H113.54V49.052C113.54 48.652 113.432 48.348 113.216 48.14C113.008 47.924 112.708 47.816 112.316 47.816C111.972 47.816 111.644 47.92 111.332 48.128C111.028 48.336 110.756 48.616 110.516 48.968V53H109.46V47ZM118.768 55.52C118.016 55.52 117.424 55.352 116.992 55.016C116.56 54.68 116.308 54.228 116.236 53.66H117.388C117.524 54.26 117.972 54.56 118.732 54.56C119.356 54.56 119.8 54.404 120.064 54.092C120.336 53.788 120.472 53.392 120.472 52.904V52.208C120.2 52.48 119.912 52.68 119.608 52.808C119.312 52.936 118.956 53 118.54 53C118.012 53 117.54 52.88 117.124 52.64C116.716 52.392 116.396 52.036 116.164 51.572C115.932 51.108 115.816 50.564 115.816 49.94C115.816 49.324 115.94 48.784 116.188 48.32C116.436 47.856 116.768 47.5 117.184 47.252C117.608 47.004 118.068 46.88 118.564 46.88C118.988 46.88 119.36 46.956 119.68 47.108C120 47.26 120.264 47.444 120.472 47.66V47H121.528V52.964C121.528 53.74 121.284 54.36 120.796 54.824C120.316 55.288 119.64 55.52 118.768 55.52ZM118.732 52.04C119.252 52.04 119.672 51.88 119.992 51.56C120.312 51.232 120.472 50.824 120.472 50.336V49.568C120.472 49.24 120.392 48.944 120.232 48.68C120.08 48.416 119.868 48.212 119.596 48.068C119.332 47.916 119.044 47.84 118.732 47.84C118.188 47.84 117.74 48.012 117.388 48.356C117.044 48.7 116.872 49.228 116.872 49.94C116.872 50.652 117.044 51.18 117.388 51.524C117.74 51.868 118.188 52.04 118.732 52.04Z" fill="#F78411"/>
<defs>
<clipPath id="clip0">
<rect width="119" height="38" fill="white"/>
</clipPath>
</defs>
</svg>
