<svg width="261" height="84" viewBox="0 0 261 84" fill="none" xmlns="http://www.w3.org/2000/svg">
<path d="M46.0708 57.1895C46.0708 61.2522 46.0708 64.971 46.0422 68.6569C46.0189 68.8457 45.9522 69.0264 45.8474 69.1849C45.7426 69.3434 45.6026 69.4753 45.4383 69.5702C38.0938 74.2473 30.7221 78.908 23.3231 83.5524C23.1828 83.6004 23.0379 83.6333 22.8906 83.6507L9.47463 75.2098C6.61843 73.4159 3.78263 71.6344 0.979464 69.8119C0.530632 69.5129 0.0532377 69.0378 0.0491575 68.6569C-0.0242878 64.9341 0.000193938 61.2235 0.000193938 57.1895L23.0294 71.7245L46.0708 57.1895Z" fill="#0ABF53"/>
<path d="M45.8953 5.99533C45.8953 7.04836 45.5842 8.07773 45.0013 8.95329C44.4185 9.82885 43.59 10.5113 42.6208 10.9142C41.6515 11.3172 40.585 11.4227 39.5561 11.2172C38.5271 11.0118 37.582 10.5047 36.8401 9.7601C36.0983 9.0155 35.5931 8.06682 35.3884 7.03403C35.1838 6.00124 35.2888 4.93072 35.6903 3.95785C36.0918 2.98498 36.7716 2.15346 37.6439 1.56843C38.5162 0.983401 39.5418 0.671143 40.5909 0.671143C41.9977 0.671143 43.3469 1.23208 44.3417 2.23056C45.3364 3.22904 45.8953 4.58327 45.8953 5.99533" fill="#0ABF53"/>
<path d="M23.0375 11.3195C18.5182 11.3195 14.1005 12.6646 10.3429 15.1847C6.58527 17.7048 3.65658 21.2868 1.92714 25.4776C0.197706 29.6684 -0.254794 34.2799 0.626865 38.7288C1.50852 43.1778 3.68474 47.2644 6.88032 50.4719C10.0759 53.6794 14.1473 55.8638 18.5797 56.7487C23.0121 57.6337 27.6064 57.1795 31.7816 55.4436C35.9569 53.7077 39.5255 50.768 42.0362 46.9964C44.547 43.2248 45.8871 38.7905 45.8871 34.2544C45.8871 28.1717 43.4797 22.3381 39.1946 18.037C34.9095 13.7358 29.0976 11.3195 23.0375 11.3195V11.3195ZM22.8783 48.7116C20.0316 48.7116 17.2487 47.8644 14.8816 46.2771C12.5145 44.6898 10.6694 42.4336 9.57961 39.7939C8.48983 37.1542 8.20428 34.2494 8.75906 31.4468C9.31384 28.6441 10.6841 26.0696 12.6965 24.0485C14.7089 22.0274 17.2731 20.6507 20.065 20.0922C22.8568 19.5338 25.751 19.8187 28.3815 20.9111C31.012 22.0035 33.2608 23.8542 34.8436 26.2292C36.4264 28.6043 37.272 31.397 37.2736 34.2544C37.2736 38.0865 35.757 41.7617 33.0573 44.4714C30.3577 47.1811 26.6962 48.7035 22.8783 48.7035" fill="#0ABF53"/>
<path d="M97.9925 21.9678V54.9532C97.9925 66.6214 88.9301 71.5524 79.7291 71.5524C72.5314 71.5524 66.513 68.8452 63.3304 63.1483L72.1887 58.0125C73.5025 60.4412 75.506 62.3866 80.0759 62.3866C84.9151 62.3866 87.8937 59.8842 87.8937 54.9532V51.7587C85.6088 54.6255 82.2874 56.2638 77.7909 56.2638C67.9656 56.2638 60.772 48.2079 60.772 38.6243C60.772 29.0408 67.9656 20.9849 77.7909 20.9849C82.2793 20.9849 85.6088 22.6517 87.8937 25.4899V21.9678H97.9925ZM87.8937 38.6366C87.8937 33.8448 84.4337 30.5807 79.521 30.5807C74.6083 30.5807 71.1482 33.8571 71.1482 38.6366C71.1482 43.4161 74.6083 46.6925 79.521 46.6925C84.4337 46.6925 87.8937 43.4161 87.8937 38.6366Z" fill="#00112C"/>
<path d="M115.983 11.3073H105.607V56.87H115.983V11.3073Z" fill="#00112C"/>
<path d="M121.687 38.5342C121.668 36.1156 122.13 33.7176 123.046 31.4802C123.961 29.2429 125.312 27.2113 127.019 25.5041C128.726 23.7969 130.755 22.4483 132.987 21.5374C135.219 20.6264 137.61 20.1713 140.02 20.1985C150.192 20.1985 158.356 28.1848 158.356 38.5342C158.356 48.8836 150.196 56.8658 140.02 56.8658C129.843 56.8658 121.687 48.8795 121.687 38.5342V38.5342ZM147.976 38.5342C147.976 33.6196 144.516 30.3432 140.02 30.3432C135.523 30.3432 132.063 33.6196 132.063 38.5342C132.063 43.4489 135.523 46.7253 140.02 46.7253C144.516 46.7253 147.976 43.4489 147.976 38.5342Z" fill="#00112C"/>
<path d="M201.64 38.2926C201.64 48.642 194.165 56.6283 185.103 56.6283C180.467 56.6283 177.077 55.031 174.796 52.3935V56.6283H164.436V11.3195H174.816V24.1958C177.085 21.5583 180.467 19.961 185.103 19.961C194.165 19.961 201.64 27.9473 201.64 38.2926V38.2926ZM191.26 38.2926C191.26 33.0872 187.8 29.8231 183.026 29.8231C178.252 29.8231 174.796 33.0995 174.796 38.2926C174.796 43.4857 178.252 46.7663 183.026 46.7663C187.8 46.7663 191.26 43.4898 191.26 38.2926" fill="#00112C"/>
<path d="M243.015 21.12V56.8125H232.634V52.5778C230.353 55.2153 226.963 56.8125 222.328 56.8125C213.261 56.8125 205.79 48.8263 205.79 38.4809C205.79 28.1356 213.261 20.1453 222.328 20.1453C226.963 20.1453 230.353 21.7425 232.634 24.3841V21.1077L243.015 21.12ZM232.634 38.4809C232.634 33.2714 229.174 30.0073 224.4 30.0073C219.626 30.0073 216.17 33.2837 216.17 38.4809C216.17 43.6782 219.626 46.9505 224.417 46.9505C229.207 46.9505 232.651 43.6741 232.651 38.4769" fill="#00112C"/>
<path d="M261 11.3073H250.624V56.7062H261V11.3073Z" fill="#00112C"/>
</svg>
