<svg width="119" height="38" viewBox="0 0 119 38" fill="none" xmlns="http://www.w3.org/2000/svg">
<path d="M86.7306 3.13358L80.7862 10.1239L76.696 14.9448H76.6252L61.5521 14.9873L61.5379 10.1664L72.5349 10.1239H74.4598L76.6677 7.5291L83.0508 0L86.7306 3.13358Z" fill="#F78411"/>
<path d="M91.7835 10.1666L91.7693 14.9875L76.6962 14.9449L80.7864 10.124L91.7835 10.1666Z" fill="#F78411"/>
<path d="M76.6677 7.52911L74.4598 10.1239H72.5349L66.5906 3.13358L70.2704 0L76.6677 7.52911Z" fill="#F78411"/>
<path d="M4.67052 36.8659C3.27261 36.1109 2.11138 34.9819 1.31621 33.6047C0.40657 32.0095 -0.048709 30.1949 -3.19583e-05 28.3584C-0.0568911 26.5049 0.393387 24.671 1.30206 23.0554C2.10687 21.6624 3.28962 20.5266 4.71298 19.78C6.09931 19.0605 7.63821 18.686 9.19954 18.6883C11.1864 18.6618 13.1196 19.3341 14.6627 20.5883V19.0286H19.8144V37.6315H14.6627V35.689C13.9238 36.4651 13.0271 37.0731 12.0333 37.4719C11.0394 37.8706 9.9717 38.0508 8.90232 38.0002C7.41902 37.9841 5.96365 37.594 4.67052 36.8659ZM13.3606 32.4703C13.795 32.0526 14.1358 31.547 14.3603 30.9872C14.5848 30.4274 14.6879 29.8261 14.6627 29.2233V27.4368C14.6841 26.8353 14.5778 26.2361 14.3509 25.6788C14.124 25.1215 13.7816 24.6188 13.3464 24.2039C12.4653 23.3802 11.2959 22.937 10.0912 22.9703C9.44358 22.9451 8.79805 23.0585 8.19766 23.303C7.59727 23.5475 7.05584 23.9175 6.60951 24.3883C5.65447 25.4812 5.17096 26.9089 5.26495 28.3584C5.22861 29.0766 5.335 29.7949 5.57796 30.4715C5.82092 31.1482 6.19561 31.7698 6.68027 32.3002C7.13472 32.7681 7.6816 33.1359 8.28599 33.3801C8.89037 33.6242 9.53894 33.7393 10.1903 33.7181C11.3686 33.7298 12.5053 33.2824 13.3606 32.4703Z" fill="white"/>
<path d="M24.4565 10.4785H29.7215V37.6315H24.4565V10.4785Z" fill="white"/>
<path d="M34.562 16.0933C34.2778 15.817 34.0518 15.4864 33.8975 15.1211C33.7433 14.7557 33.6638 14.3631 33.6638 13.9664C33.6638 13.5697 33.7433 13.177 33.8975 12.8117C34.0518 12.4463 34.2778 12.1158 34.562 11.8395C34.8387 11.5566 35.169 11.3318 35.5335 11.1783C35.8981 11.0248 36.2895 10.9458 36.6849 10.9458C37.0804 10.9458 37.4718 11.0248 37.8363 11.1783C38.2009 11.3318 38.5312 11.5566 38.8079 11.8395C39.0886 12.1177 39.3115 12.449 39.4636 12.814C39.6157 13.1791 39.694 13.5708 39.694 13.9664C39.694 14.362 39.6157 14.7537 39.4636 15.1187C39.3115 15.4838 39.0886 15.815 38.8079 16.0933C38.5312 16.3762 38.2009 16.601 37.8363 16.7545C37.4718 16.9079 37.0804 16.987 36.6849 16.987C36.2895 16.987 35.8981 16.9079 35.5335 16.7545C35.169 16.601 34.8387 16.3762 34.562 16.0933ZM34.0808 19.0283H39.275V37.6313H34.0808V19.0283Z" fill="white"/>
<path d="M46.9886 36.5818C46.4486 36.0216 46.0342 35.3523 45.773 34.6188C45.5119 33.8852 45.41 33.1043 45.4742 32.3281V23.3386H42.1624V19.0848H45.4742V13.7109H46.1394L50.626 15.2706V19.0281H54.5606V23.2818H50.626V31.7893C50.6025 32.0498 50.6373 32.3122 50.7279 32.5575C50.8185 32.8028 50.9626 33.0248 51.1496 33.2072C51.5475 33.5345 52.0504 33.7058 52.5649 33.6893C53.0708 33.6727 53.5715 33.5819 54.051 33.4199L54.3058 33.5759V37.5602C53.2331 37.8049 52.1365 37.9285 51.0364 37.9289C49.5654 38.0109 48.1182 37.5294 46.9886 36.5818Z" fill="white"/>
<path d="M61.453 36.8657C60.0175 36.0826 58.838 34.901 58.0563 33.4628C57.2073 31.8984 56.7828 30.1384 56.8249 28.3583C56.7924 26.5954 57.248 24.8581 58.1412 23.3389C58.9767 21.881 60.1893 20.676 61.6512 19.8508C63.0877 19.0343 64.7126 18.6089 66.3642 18.6172C68.0577 18.5835 69.7324 18.9785 71.2329 19.7657C72.6271 20.5271 73.7685 21.6804 74.5164 23.0837C75.3247 24.6555 75.7239 26.4064 75.677 28.1739V29.5919H61.722C61.7802 30.7578 62.2875 31.8557 63.1373 32.6545C64.0485 33.4364 65.2223 33.8419 66.4208 33.7889C67.3441 33.8657 68.2663 33.6272 69.0372 33.1124C69.8081 32.5975 70.3824 31.8365 70.6668 30.9531L75.0118 31.3926L75.2666 31.8322C74.7104 33.7048 73.5445 35.337 71.9547 36.4687C70.2693 37.5506 68.2937 38.0899 66.2934 38.0142C64.6094 38.0439 62.9449 37.6489 61.453 36.8657ZM70.7658 26.2456C70.7237 25.7261 70.5765 25.2206 70.3332 24.7599C70.0898 24.2992 69.7555 23.8929 69.3505 23.5657C68.4859 22.8822 67.4085 22.5258 66.3076 22.559C65.277 22.5611 64.2781 22.9163 63.4769 23.5657C62.6499 24.2418 62.0925 25.1927 61.9059 26.2456H70.7658Z" fill="white"/>
<path d="M83.0085 36.7662C81.5501 35.9666 80.3404 34.7792 79.5126 33.3349C78.634 31.8258 78.1837 30.1048 78.2105 28.358C78.1785 26.6016 78.629 24.8701 79.5126 23.3528C80.33 21.8823 81.5407 20.6694 83.0085 19.8505C84.5154 19.0177 86.2129 18.5926 87.9338 18.6169C90.1087 18.5336 92.248 19.1881 94.0055 20.4744C95.6023 21.7225 96.6772 23.5224 97.0201 25.5222L96.7229 25.8908L92.4769 26.3445C92.2251 25.4394 91.6705 24.6485 90.9059 24.1043C90.0391 23.4909 88.9941 23.1818 87.9338 23.2251C87.3067 23.2126 86.684 23.3324 86.1061 23.5767C85.5282 23.821 85.0081 24.1843 84.5795 24.6431C83.6649 25.6575 83.1869 26.9925 83.2491 28.358C83.2058 29.0505 83.3012 29.7447 83.5297 30.3997C83.7581 31.0547 84.1151 31.6574 84.5795 32.1722C85.0137 32.6188 85.5366 32.9694 86.1143 33.2014C86.692 33.4334 87.3118 33.5417 87.9338 33.5192C88.9397 33.5635 89.9329 33.2799 90.7644 32.711C91.5387 32.0913 92.0983 31.2429 92.3637 30.2863L96.6097 30.7401L96.9069 31.0662C96.4669 33.1012 95.3427 34.9232 93.7224 36.2274C92.0115 37.4719 89.9335 38.1059 87.8205 38.0281C86.1355 38.0243 84.4793 37.59 83.0085 36.7662Z" fill="white"/>
<path d="M100.657 10.4785H105.866V21.3397C106.66 20.5005 107.625 19.8427 108.696 19.4114C109.83 18.9129 111.054 18.6569 112.291 18.6599C114.08 18.5802 115.828 19.2064 117.16 20.4039C117.783 21.0158 118.271 21.7527 118.59 22.5664C118.91 23.38 119.054 24.2521 119.014 25.1255V37.6315H113.806V26.43C113.838 25.978 113.773 25.5244 113.617 25.0991C113.461 24.6738 113.216 24.2865 112.9 23.9628C112.251 23.3858 111.403 23.0856 110.536 23.1263C109.624 23.1246 108.727 23.359 107.932 23.8069C107.104 24.2932 106.397 24.9624 105.866 25.7636V37.6315H100.657V10.4785Z" fill="white"/>
</svg>
