<svg width="106" height="137" viewBox="0 0 106 137" fill="none" xmlns="http://www.w3.org/2000/svg">
<g clip-path="url(#clip0)">
<path d="M29.1966 23.5725C28.3899 24.0514 27.5941 24.5521 26.8092 25.0746C27.571 24.5214 28.3685 24.0196 29.1966 23.5725V23.5725Z" stroke="#1946BB" stroke-width="0.53" stroke-miterlimit="10"/>
<path d="M41.8282 58.7834C42.2948 58.7017 42.7506 58.6092 43.2009 58.4895C42.7506 58.6092 42.3219 58.7072 41.8282 58.7834Z" fill="#FDC743"/>
<path d="M47.2649 56.7698L51.139 53.5045C50.0321 54.7959 48.7238 55.8986 47.2649 56.7698V56.7698Z" fill="#FDC743"/>
<path d="M52.8861 50.9792C52.3885 51.8769 51.8032 52.7228 51.1389 53.5044L52.8861 50.9792Z" fill="#FDC743"/>
<path d="M21.6493 106.473H27.2488V122.255H27.4876L33.2119 115.725H39.8152L32.1321 124.536L40.2167 135.774H33.6405L27.4876 127.344H27.2488V135.774H21.6493V106.473Z" fill="#32B0C9"/>
<path d="M43.6566 112.536C43.214 112.079 42.9144 111.502 42.7945 110.877C42.6747 110.251 42.7399 109.604 42.9821 109.015C43.2243 108.426 43.633 107.921 44.1577 107.563C44.6825 107.204 45.3004 107.007 45.9354 106.996C46.3645 106.987 46.7907 107.069 47.1868 107.235C47.5828 107.4 47.9402 107.647 48.236 107.959C48.8341 108.57 49.1693 109.391 49.1693 110.247C49.1693 111.103 48.8341 111.925 48.236 112.536C47.9371 112.841 47.5807 113.083 47.1876 113.248C46.7945 113.413 46.3725 113.498 45.9463 113.498C45.5201 113.498 45.0981 113.413 44.705 113.248C44.3119 113.083 43.9555 112.841 43.6566 112.536V112.536ZM43.114 115.703H48.7352V135.774H43.1357L43.114 115.703Z" fill="#FDC743"/>
<path d="M57.5143 134.99C56.0064 134.16 54.7546 132.931 53.8952 131.436C52.9069 129.705 52.4149 127.733 52.4737 125.739C52.4113 123.74 52.8954 121.762 53.8735 120.019C54.743 118.515 56.0207 117.29 57.5577 116.487C59.051 115.703 60.7122 115.296 62.3976 115.3C64.5382 115.266 66.6217 115.993 68.2792 117.352V106.468H73.8842V135.768H68.263V133.679C66.7148 135.337 64.6475 136.166 62.0612 136.166C60.4716 136.16 58.9087 135.756 57.5143 134.99V134.99ZM66.8631 130.239C67.3334 129.789 67.7017 129.242 67.9433 128.637C68.1848 128.031 68.2938 127.381 68.263 126.729V124.797C68.2894 124.147 68.1761 123.498 67.9309 122.895C67.6856 122.292 67.3141 121.749 66.8414 121.303C65.8269 120.417 64.5172 119.946 63.1723 119.983C61.8274 120.02 60.5457 120.563 59.5816 121.505C58.6194 122.524 58.1383 123.943 58.1383 125.76C58.1383 127.578 58.6266 128.997 59.6033 130.016C60.0934 130.524 60.6851 130.923 61.3397 131.186C61.9944 131.448 62.697 131.569 63.4014 131.54C64.6801 131.575 65.9219 131.108 66.8631 130.239V130.239Z" fill="#FD671B"/>
<path d="M80.4658 134.626C78.9699 133.59 77.9028 132.041 77.4653 130.272L77.6281 129.728L81.9091 128.443C82.3866 130.689 83.8335 131.814 86.2498 131.817C86.97 131.84 87.6811 131.651 88.2953 131.273C88.544 131.125 88.7489 130.914 88.889 130.66C89.0292 130.407 89.0996 130.121 89.0929 129.831C89.0966 129.521 89.0144 129.215 88.8554 128.949C88.6964 128.683 88.4668 128.467 88.1923 128.323C87.0782 127.778 85.9034 127.366 84.6926 127.099C82.5801 126.591 80.9921 125.849 79.9286 124.873C79.049 124.006 78.4971 122.86 78.3674 121.63C78.2377 120.4 78.5384 119.163 79.2178 118.13C79.8654 117.225 80.7446 116.513 81.7626 116.068C82.9443 115.537 84.2283 115.275 85.5227 115.3C87.3505 115.224 89.158 115.708 90.7044 116.688C92.0469 117.606 92.9854 119.007 93.3251 120.601L93.0864 121.042L88.8325 122.076C88.7073 121.229 88.2815 120.456 87.6334 119.899C86.9954 119.398 86.2027 119.136 85.3925 119.159C84.8039 119.139 84.2214 119.284 83.7105 119.578C83.5036 119.688 83.3305 119.852 83.2101 120.054C83.0896 120.255 83.0262 120.486 83.0268 120.721C83.0268 121.314 83.4012 121.809 84.15 122.168C85.4688 122.739 86.8339 123.196 88.2302 123.534C90.2885 124.097 91.8023 124.831 92.7717 125.738C93.2695 126.227 93.6572 126.817 93.909 127.468C94.1607 128.12 94.2706 128.818 94.2313 129.515C94.2413 130.71 93.9017 131.881 93.2546 132.884C92.5649 133.93 91.5943 134.758 90.4549 135.273C89.1264 135.869 87.683 136.163 86.2281 136.133C83.8841 136.158 81.9633 135.656 80.4658 134.626Z" fill="#1946BB"/>
<path d="M61.4265 52.4704L59.8584 56.2255L59.5708 56.9058L57.4656 61.9126L55.458 57.1235L55.1759 56.4486L53.3365 52.0949C53.6029 51.2427 54.1332 50.4979 54.8503 49.9684C55.5674 49.439 56.4341 49.1526 57.3245 49.1507C57.9874 49.1474 58.6411 49.3062 59.229 49.6133C59.7844 49.8952 60.2699 50.2981 60.6501 50.7924C61.0303 51.2868 61.2955 51.8601 61.4265 52.4704V52.4704Z" fill="#FFB14E"/>
<path d="M95.0885 30.5439C98.9601 26.4968 101.205 21.158 101.392 15.5523C101.58 9.94666 99.696 4.46912 96.1031 0.171143C95.4121 4.98527 93.2016 9.45074 89.7957 12.9129C86.3898 16.375 81.9677 18.6517 77.1776 19.4092C72.0362 17.4518 66.6321 16.276 61.1442 15.9208C60.4931 15.8773 59.8365 15.8446 59.18 15.8228C58.6374 15.8228 58.0406 15.8228 57.4654 15.8228H56.0438C55.2191 15.8228 54.4161 15.8827 53.5859 15.9426C48.0066 16.3198 42.5175 17.5494 37.3083 19.5888V19.5888C32.6241 18.8454 28.2895 16.6497 24.9129 13.3097C21.5362 9.9697 19.2868 5.65313 18.4805 0.9657C15.2117 5.2562 13.5704 10.5726 13.8497 15.9651C14.129 21.3576 16.3108 26.4748 20.0051 30.4024C20.3307 30.7453 20.6671 31.0827 21.0089 31.4038C18.3095 35.9312 17.3801 41.3018 18.4005 46.4768C19.4209 51.6518 22.3186 56.2633 26.533 59.4192C30.7474 62.5751 35.979 64.0512 41.2157 63.5618C46.4525 63.0724 51.3221 60.6523 54.8827 56.7698C54.9858 56.6664 55.0835 56.5575 55.1757 56.4487L54.6331 55.148L54.2153 54.1521L54.0797 53.8256L53.3363 52.0514C53.3529 51.9923 53.3729 51.9341 53.396 51.8773L53.4611 51.7086C53.5052 51.5968 53.5559 51.4877 53.613 51.382C53.7269 51.1722 53.8575 50.972 54.0037 50.7834C54.1 50.6564 54.2052 50.5363 54.3184 50.4242L54.5843 50.1739L54.7905 50.0052H54.823L54.9098 49.9453L55.04 49.8528L55.1757 49.7711C55.2788 49.7058 55.3873 49.646 55.4958 49.5916L55.6912 49.5045L55.8051 49.4609L55.9136 49.4174C56.3664 49.2552 56.8436 49.1723 57.3243 49.1725V49.1725C57.4913 49.1724 57.658 49.1833 57.8235 49.2052H57.8615C57.9967 49.2203 58.1308 49.2439 58.263 49.2759C58.5965 49.3536 58.919 49.4725 59.2234 49.6296L59.3808 49.7113L59.4296 49.7439L59.5273 49.8038L59.6738 49.8963C59.723 49.9277 59.7701 49.9622 59.8148 49.9997L59.9722 50.1249L60.0644 50.1956L60.1458 50.2773C60.2058 50.3274 60.262 50.382 60.314 50.4405L60.4334 50.5657L60.4659 50.6092L60.5473 50.7018L60.6124 50.7888L60.6504 50.8378C60.7204 50.9286 60.7856 51.0231 60.8457 51.1208C60.8475 51.1371 60.8475 51.1535 60.8457 51.1698C60.8712 51.2017 60.8931 51.2364 60.9109 51.2732L60.9922 51.4256L61.0682 51.5834C61.1358 51.7251 61.1955 51.8705 61.2473 52.0188C61.2961 52.1711 61.3341 52.3235 61.3721 52.4813L59.7985 56.2201L60.0427 56.4977C63.5583 60.4586 68.4199 62.9626 73.6778 63.5205C78.9356 64.0784 84.212 62.65 88.476 59.5145C92.74 56.379 95.6853 51.7616 96.7365 46.5644C97.7877 41.3672 96.8693 35.9636 94.1606 31.4092C94.5079 31.1262 94.8009 30.8378 95.0885 30.5439ZM54.861 43.5344C54.861 43.8446 54.861 44.1494 54.823 44.4487V44.699C54.6377 46.9044 53.9827 49.0442 52.9023 50.9739L51.1388 53.5045L47.2648 56.7698C46.9718 56.9439 46.6733 57.1126 46.3695 57.2705C46.0656 57.4283 45.7509 57.5698 45.4362 57.7113C45.1215 57.8528 44.9588 57.9072 44.7146 57.9997C44.5952 58.0487 44.4759 58.0922 44.3511 58.1303C44.1123 58.212 43.8736 58.2882 43.6294 58.3589L43.2767 58.4569H43.2008C42.7504 58.5766 42.2947 58.6691 41.828 58.7507C41.5133 58.8052 41.1986 58.8487 40.8839 58.8813C40.6506 58.8813 40.4227 58.9194 40.1894 58.9303C40.0375 58.9303 39.8801 58.9303 39.7228 58.9303C39.5654 58.9303 39.4135 58.9303 39.2562 58.9303C36.2512 58.9298 33.3103 58.0591 30.7867 56.4227C28.2632 54.7864 26.2644 52.454 25.0304 49.7058C23.7965 46.9577 23.3798 43.9106 23.8306 40.9307C24.2814 37.9508 25.5804 35.1649 27.5715 32.9075C29.5627 30.6502 32.1613 29.0174 35.0552 28.2055C37.9491 27.3936 41.0151 27.437 43.885 28.3305C46.7549 29.224 49.3066 30.9297 51.2334 33.2425C53.1602 35.5553 54.3803 38.377 54.7471 41.3684V41.3684C54.8253 42.0222 54.8652 42.68 54.8664 43.3385C54.8664 43.4092 54.8664 43.4745 54.861 43.5344ZM75.9622 58.9956C72.015 58.996 68.2142 57.4959 65.3257 54.7976C62.4371 52.0993 60.6754 48.4033 60.3954 44.4541V44.4541C60.3954 44.3181 60.3954 44.1766 60.3954 44.0296C60.3954 43.8827 60.3954 43.8283 60.3954 43.7249C60.3954 43.6215 60.3954 43.5725 60.3954 43.4909V43.3494C60.3966 42.6909 60.4365 42.0331 60.5148 41.3793V41.3793C60.8909 38.3882 62.12 35.5696 64.0544 33.2621C65.9888 30.9546 68.5463 29.2564 71.4196 28.3713C74.2929 27.4862 77.3599 27.452 80.2522 28.2728C83.1444 29.0936 85.7389 30.7344 87.724 32.9982C89.709 35.262 91.0003 38.0525 91.4426 41.0344C91.885 44.0164 91.4595 47.0631 90.2175 49.8084C88.9754 52.5538 86.9696 54.8811 84.4408 56.5108C81.9121 58.1406 78.968 59.0034 75.9622 58.9956Z" fill="#32B0C9"/>
<path d="M91.5781 43.3439C91.5585 47.389 89.9789 51.2695 87.1702 54.1723C84.3614 57.0751 80.5416 58.7749 76.511 58.9157C72.4805 59.0564 68.552 57.627 65.5489 54.9271C62.5457 52.2272 60.7009 48.4662 60.401 44.4323V44.4323C60.401 44.2963 60.401 44.1548 60.401 44.0079C60.401 43.8609 60.401 43.8065 60.401 43.7031C60.401 43.5997 60.401 43.5507 60.401 43.4691V43.3276C60.4022 42.6691 60.4421 42.0113 60.5204 41.3575V41.3575C61.0111 37.3993 62.9895 33.7781 66.0517 31.2332C69.1139 28.6884 73.0291 27.4117 76.9979 27.6638C80.9667 27.9159 84.69 29.6777 87.4077 32.5898C90.1254 35.5018 91.6325 39.3443 91.6215 43.333L91.5781 43.3439Z" fill="white"/>
<path d="M54.7253 42.027C54.7253 42.1249 54.7253 42.2283 54.7253 42.3263C54.7253 43.0446 54.7633 43.7521 54.8284 44.4487V44.6991C54.6431 46.9044 53.9881 49.0442 52.9077 50.9739L51.1388 53.5045L47.2647 56.7698C46.9717 56.944 46.6733 57.1127 46.3695 57.2705C46.0656 57.4283 45.7509 57.5698 45.4362 57.7113C45.1215 57.8528 44.9587 57.9072 44.7146 57.9997C44.5952 58.0487 44.4758 58.0923 44.351 58.1304C44.1123 58.212 43.8736 58.2882 43.6294 58.3589L43.2767 58.4569H43.2008C42.7504 58.5766 42.2946 58.6691 41.828 58.7508C41.5133 58.8052 41.1986 58.8487 40.8839 58.8814C40.6506 58.8814 40.4227 58.9195 40.1894 58.9304C40.0375 58.9304 39.8801 58.9304 39.7228 58.9304C39.5654 58.9304 39.4135 58.9304 39.2561 58.9304C36.2512 58.9298 33.3103 58.0591 30.7867 56.4227C28.2632 54.7864 26.2644 52.454 25.0304 49.7059C23.7964 46.9577 23.3798 43.9107 23.8306 40.9308C24.2814 37.9509 25.5804 35.1649 27.5715 32.9075C29.5627 30.6502 32.1613 29.0175 35.0552 28.2056C37.949 27.3936 41.0151 27.437 43.885 28.3306C46.7549 29.2241 49.3065 30.9297 51.2334 33.2425C53.1602 35.5553 54.3803 38.377 54.747 41.3684V41.3684C54.8253 42.0222 54.8651 42.68 54.8664 43.3385C54.8664 43.4038 54.8664 43.4691 54.8664 43.529C54.8632 43.0251 54.816 42.5225 54.7253 42.027V42.027Z" fill="white"/>
<path d="M54.8014 44.4541C54.7362 43.7575 54.6983 43.05 54.6983 42.3317C54.6983 42.2337 54.6983 42.1303 54.6983 42.0323C54.7874 42.5299 54.8328 43.0343 54.8339 43.5398C54.8366 43.5724 54.8366 43.6052 54.8339 43.6378C54.8339 44.0014 54.8139 44.3648 54.7742 44.7262L54.8014 44.4541Z" fill="#32B0C9"/>
<path d="M77.6226 43.4854C77.6259 45.6701 76.8056 47.7754 75.3262 49.3789C73.8468 50.9825 71.8176 51.9658 69.6457 52.1317C67.4738 52.2977 65.3196 51.6339 63.6151 50.2736C61.9106 48.9133 60.7819 46.957 60.4551 44.7969C60.4172 44.5357 60.39 44.2527 60.3738 44.0133C60.3738 43.9099 60.3738 43.8119 60.3738 43.7085C60.3738 43.6051 60.3738 43.5561 60.3738 43.4745C60.3748 41.5535 61.0127 39.6874 62.187 38.1699C63.3614 36.6525 65.0055 35.5698 66.8606 35.0923C68.7157 34.6148 70.6765 34.7697 72.4342 35.5325C74.192 36.2952 75.6469 37.6227 76.57 39.3058C77.2706 40.5861 77.633 42.0249 77.6226 43.4854V43.4854Z" fill="#FFB14E"/>
<path d="M75.8376 43.4854C75.8327 45.0615 75.2597 46.5826 74.2244 47.7682C73.189 48.9538 71.7611 49.7238 70.2041 49.9362C68.6471 50.1486 67.066 49.7891 65.7525 48.924C64.4391 48.0589 63.4818 46.7465 63.0574 45.229C62.633 43.7115 62.7701 42.0912 63.4434 40.6672C64.1166 39.2431 65.2806 38.1112 66.7206 37.4804C68.1606 36.8496 69.7795 36.7625 71.2786 37.235C72.7776 37.7075 74.0558 38.7078 74.8772 40.0514C75.512 41.0831 75.8448 42.2731 75.8376 43.4854Z" fill="#06122D"/>
<path d="M46.0928 52.1439C50.8605 52.1439 54.7254 48.2674 54.7254 43.4854C54.7254 38.7034 50.8605 34.8269 46.0928 34.8269C41.3252 34.8269 37.4603 38.7034 37.4603 43.4854C37.4603 48.2674 41.3252 52.1439 46.0928 52.1439Z" fill="#FFB14E"/>
<path d="M46.0929 50.0105C49.6858 50.0105 52.5985 47.0891 52.5985 43.4854C52.5985 39.8816 49.6858 36.9602 46.0929 36.9602C42.4999 36.9602 39.5872 39.8816 39.5872 43.4854C39.5872 47.0891 42.4999 50.0105 46.0929 50.0105Z" fill="#06122D"/>
<path d="M41.7143 42.6202C41.7157 43.0582 41.6308 43.4922 41.4645 43.8973C41.2982 44.3023 41.0538 44.6704 40.7452 44.9804C40.4366 45.2904 40.07 45.5362 39.6665 45.7037C39.2629 45.8711 38.8304 45.957 38.3936 45.9562C37.8606 45.9586 37.3352 45.8297 36.8635 45.5807C36.2546 45.2631 35.7585 44.7642 35.4434 44.1526C35.1283 43.541 35.0095 42.8466 35.1034 42.1646C35.1973 41.4826 35.4993 40.8465 35.9679 40.3434C36.4365 39.8404 37.0488 39.4951 37.7208 39.3549C37.9423 39.3106 38.1677 39.2887 38.3936 39.2896C39.2739 39.291 40.1177 39.6424 40.7401 40.2667C41.3625 40.891 41.7128 41.7373 41.7143 42.6202V42.6202Z" fill="white"/>
<path d="M80.3029 42.6201C80.3016 43.2692 80.1122 43.9039 79.7577 44.447C79.4032 44.99 78.8989 45.4179 78.3062 45.6786C77.9771 45.8205 77.627 45.9069 77.2699 45.9344C77.1723 45.94 77.0744 45.94 76.9769 45.9344C76.5015 45.9341 76.0316 45.832 75.5987 45.6351L75.4847 45.5807C74.9953 45.3296 74.5756 44.9606 74.2634 44.5067C73.9512 44.0528 73.7562 43.5283 73.696 42.9802C73.6357 42.4321 73.7121 41.8776 73.9182 41.3664C74.1244 40.8552 74.4538 40.4034 74.877 40.0514L74.9584 39.9807C75.4301 39.6139 75.9932 39.3842 76.5862 39.3167C76.7262 39.295 76.8677 39.2841 77.0094 39.2841C77.2047 39.2895 77.3991 39.3132 77.59 39.3548C78.3502 39.4978 79.0369 39.902 79.532 40.498C80.0272 41.094 80.2998 41.8444 80.3029 42.6201V42.6201Z" fill="white"/>
<path d="M3.00051 94.0868C1.50316 93.0524 0.435674 91.5035 0 89.7331L0.157351 89.1889L4.4438 87.9045C4.92127 90.1503 6.36818 91.2732 8.7845 91.2732C9.50299 91.2959 10.2123 91.1067 10.8246 90.729C11.0742 90.5819 11.2803 90.3708 11.4214 90.1173C11.5626 89.8638 11.6338 89.5771 11.6277 89.2868C11.6295 88.9769 11.5465 88.6724 11.3877 88.4066C11.2289 88.1408 11.0003 87.9238 10.727 87.7793C9.61134 87.2327 8.43464 86.8216 7.22185 86.5548C5.11661 86.0469 3.53044 85.3049 2.46335 84.329C1.57493 83.459 1.01844 82.3043 0.890578 81.0655C0.762711 79.8267 1.07154 78.5822 1.76341 77.548C2.40692 76.6402 3.28476 75.9253 4.30272 75.48C5.48597 74.9549 6.76916 74.6948 8.06286 74.7181C9.88992 74.6409 11.6972 75.123 13.2446 76.1004C14.5891 77.0164 15.5282 78.4186 15.8653 80.0133L15.6265 80.4542L11.3835 81.4991C11.2546 80.6627 10.8287 79.9012 10.1844 79.3548C9.54738 78.851 8.75441 78.5872 7.94349 78.6093C7.35418 78.5893 6.77121 78.7365 6.26147 79.0337C6.05519 79.144 5.88293 79.3088 5.76337 79.5103C5.64382 79.7117 5.58152 79.9422 5.58323 80.1766C5.58323 80.7644 5.95762 81.265 6.70639 81.6188C8.02395 82.1931 9.38929 82.6502 10.7867 82.9848C12.8376 83.5471 14.3515 84.2836 15.3281 85.1943C15.8252 85.6824 16.2125 86.2714 16.4643 86.9218C16.716 87.5722 16.8262 88.2691 16.7877 88.9657C16.7993 90.1613 16.4575 91.3335 15.8056 92.3344C15.1186 93.3824 14.1472 94.2113 13.0058 94.7235C11.6805 95.3236 10.2383 95.6192 8.7845 95.5889C6.7487 95.6935 4.72988 95.1693 3.00051 94.0868V94.0868Z" fill="#1946BB"/>
<path d="M20.6183 75.1643H26.207V77.5317C26.9202 76.6491 27.8244 75.941 28.8509 75.4611C29.8775 74.9812 30.9996 74.7419 32.1321 74.7616C34.505 74.7616 36.1725 75.6977 37.1347 77.5698C37.9446 76.6759 38.9336 75.9637 40.037 75.4798C41.1403 74.9959 42.3331 74.7511 43.5373 74.7616C45.5882 74.7616 47.178 75.3385 48.2958 76.4868C49.4135 77.6351 49.9778 79.2079 49.9778 81.2215V95.2297H44.3783V82.4677C44.3783 80.5412 43.521 79.578 41.8173 79.578C40.2655 79.578 39.0103 80.4197 38.0517 82.1031V95.2297H32.4522V82.5058C32.4522 80.5521 31.622 79.578 29.9726 79.578C29.1845 79.5812 28.4203 79.8495 27.8022 80.3399C27.1145 80.8586 26.5571 81.5314 26.1744 82.3045V95.2297H20.6183V75.1643Z" fill="#1946BB"/>
<path d="M77.5901 75.1643H83.195V77.5697C83.8863 76.7377 84.7275 76.0436 85.6747 75.5234C86.6214 75.0127 87.6816 74.7506 88.7566 74.7615C89.4119 74.7371 90.0653 74.8463 90.6773 75.0826L89.9557 79.4962L89.679 79.7792C89.2348 79.657 88.7775 79.5894 88.3171 79.5779C87.2579 79.5657 86.2216 79.8874 85.3545 80.4976C84.4101 81.189 83.662 82.1157 83.1842 83.186V95.2296H77.5901V75.1643Z" fill="#1946BB"/>
<path d="M97.8339 94.1031C96.7488 93.0909 96.2062 91.5616 96.2062 89.5317V79.8174H92.6414V75.1644H96.2062V69.4229H101.768V75.1644H106.011V79.8174H101.768V89.0691C101.748 89.3412 101.786 89.6143 101.88 89.8704C101.973 90.1265 102.12 90.3598 102.31 90.5548C102.761 90.9436 103.345 91.139 103.938 91.099C104.482 91.0803 105.021 90.9851 105.539 90.816L105.821 90.9793V95.2732C104.666 95.5414 103.485 95.6765 102.299 95.6759C100.663 95.7561 99.0609 95.1916 97.8339 94.1031V94.1031Z" fill="#1946BB"/>
<path d="M57.7205 94.446C56.2115 93.6175 54.9593 92.3879 54.1015 90.8922C53.1131 89.1606 52.6211 87.1887 52.6799 85.1943C52.6175 83.1953 53.1016 81.2173 54.0798 79.4746C54.9487 77.9723 56.2242 76.7477 57.7585 75.9426C59.2543 75.1609 60.9172 74.7556 62.6038 74.7616C64.7437 74.7261 66.8272 75.4509 68.4855 76.8079V75.1752H74.085V95.2405H68.4855V93.1508C66.9409 94.8088 64.8737 95.6396 62.2837 95.6433C60.6867 95.6336 59.1177 95.2219 57.7205 94.446V94.446ZM67.0856 89.6732C67.556 89.2217 67.9244 88.6742 68.1659 88.0677C68.4074 87.4613 68.5164 86.8099 68.4855 86.1575V84.231C68.5122 83.5813 68.399 82.9334 68.1537 82.3314C67.9084 81.7294 67.5367 81.1876 67.0639 80.7426C66.0497 79.854 64.7393 79.3808 63.3931 79.4171C62.047 79.4534 60.7638 79.9966 59.7987 80.9385C58.8437 81.9562 58.3608 83.3766 58.3608 85.1943C58.3608 87.012 58.8491 88.4596 59.8204 89.4501C60.3111 89.9576 60.903 90.3556 61.5574 90.6182C62.2119 90.8808 62.9142 91.002 63.6185 90.9739C64.8986 91.0077 66.1418 90.5413 67.0856 89.6732Z" fill="#1946BB"/>
</g>
<defs>
<clipPath id="clip0">
<rect width="106" height="136" fill="white" transform="translate(0 0.171143)"/>
</clipPath>
</defs>
</svg>
