<svg width="220" height="71" viewBox="0 0 220 71" fill="none" xmlns="http://www.w3.org/2000/svg">
<g clip-path="url(#clip0)">
<path d="M160.342 6.74626L149.353 19.6231L141.791 28.5037H141.66L113.794 28.5821L113.768 19.7015L134.098 19.6231H137.657L141.739 14.8433L153.539 0.973877L160.342 6.74626Z" fill="#F78411"/>
<path d="M169.684 19.7014L169.657 28.582L141.791 28.5036L149.353 19.623L169.684 19.7014Z" fill="#30B1F5"/>
<path d="M141.739 14.8433L137.657 19.6231H134.098L123.109 6.74627L129.912 0.973877L141.739 14.8433Z" fill="#1C32A0"/>
<path d="M8.63458 68.8843C6.0502 67.4935 3.90339 65.4138 2.43334 62.8768C0.751645 59.9384 -0.0900471 56.5956 -5.60061e-05 53.2126C-0.105174 49.7982 0.727272 46.4201 2.40718 43.444C3.89505 40.8778 6.08166 38.7856 8.71307 37.4104C11.276 36.085 14.1211 35.3951 17.0076 35.3992C20.6807 35.3504 24.2547 36.5889 27.1075 38.8992V36.0261H36.6317V70.2947H27.1075V66.7164C25.7415 68.1461 24.0837 69.2661 22.2464 70.0007C20.4091 70.7352 18.4351 71.0671 16.4581 70.9738C13.7158 70.9443 11.0252 70.2256 8.63458 68.8843V68.8843ZM24.7002 60.7873C25.5034 60.0177 26.1335 59.0864 26.5485 58.0551C26.9635 57.0239 27.1541 55.9163 27.1075 54.8059V51.5149C27.147 50.4069 26.9505 49.3031 26.531 48.2766C26.1116 47.25 25.4786 46.324 24.6741 45.5597C23.0451 44.0422 20.8832 43.2259 18.656 43.2873C17.4587 43.2407 16.2653 43.4496 15.1553 43.9C14.0454 44.3505 13.0444 45.032 12.2193 45.8992C10.4537 47.9125 9.55976 50.5425 9.73353 53.2126C9.66634 54.5356 9.86304 55.8587 10.3122 57.1052C10.7614 58.3517 11.4541 59.4967 12.3501 60.4738C13.1902 61.3358 14.2013 62.0133 15.3186 62.463C16.436 62.9128 17.635 63.1249 18.8391 63.0858C21.0175 63.1074 23.1191 62.2832 24.7002 60.7873Z" fill="#000033"/>
<path d="M45.2138 20.276H54.9474V70.2947H45.2138V20.276Z" fill="#000033"/>
<path d="M63.896 30.6195C63.3706 30.1106 62.9529 29.5016 62.6676 28.8286C62.3824 28.1556 62.2354 27.4323 62.2354 26.7016C62.2354 25.9708 62.3824 25.2475 62.6676 24.5745C62.9529 23.9015 63.3706 23.2925 63.896 22.7837C64.4076 22.2624 65.0182 21.8483 65.6922 21.5656C66.3661 21.2829 67.0898 21.1373 67.8208 21.1373C68.5518 21.1373 69.2755 21.2829 69.9494 21.5656C70.6234 21.8483 71.234 22.2624 71.7456 22.7837C72.2646 23.2962 72.6766 23.9063 72.9578 24.5788C73.239 25.2513 73.3837 25.9728 73.3837 26.7016C73.3837 27.4303 73.239 28.1518 72.9578 28.8243C72.6766 29.4968 72.2646 30.107 71.7456 30.6195C71.234 31.1407 70.6234 31.5548 69.9494 31.8375C69.2755 32.1202 68.5518 32.2658 67.8208 32.2658C67.0898 32.2658 66.3661 32.1202 65.6922 31.8375C65.0182 31.5548 64.4076 31.1407 63.896 30.6195V30.6195ZM63.0063 36.0262H72.6091V70.2948H63.0063V36.0262Z" fill="#000033"/>
<path d="M86.8697 68.3619C85.8714 67.3299 85.1052 66.097 84.6224 64.7457C84.1396 63.3944 83.9513 61.9559 84.07 60.5261V43.9664H77.9472V36.1306H84.07V26.2313H85.2998L93.5942 29.1045V36.0261H100.868V43.8619H93.5942V59.5336C93.5508 60.0134 93.6152 60.4969 93.7827 60.9487C93.9502 61.4006 94.2165 61.8094 94.5624 62.1455C95.2978 62.7484 96.2277 63.064 97.1789 63.0336C98.1141 63.003 99.0397 62.8358 99.9263 62.5373L100.397 62.8246V70.1642C98.4142 70.6149 96.3869 70.8426 94.353 70.8433C91.6335 70.9945 88.9581 70.1074 86.8697 68.3619V68.3619Z" fill="#000033"/>
<path d="M113.611 68.8845C110.957 67.4418 108.776 65.2652 107.331 62.6158C105.762 59.7342 104.977 56.492 105.055 53.2128C104.995 49.9655 105.837 46.7651 107.488 43.9666C109.033 41.2811 111.275 39.0613 113.977 37.5412C116.633 36.037 119.637 35.2536 122.69 35.2688C125.821 35.2066 128.917 35.9343 131.691 37.3845C134.269 38.787 136.379 40.9116 137.762 43.4964C139.256 46.392 139.994 49.6172 139.907 52.8733V55.4852H114.108C114.216 57.633 115.154 59.6555 116.725 61.127C118.409 62.5672 120.579 63.3142 122.795 63.2166C124.502 63.3581 126.207 62.9188 127.632 61.9704C129.057 61.0219 130.119 59.62 130.645 57.9927L138.677 58.8024L139.148 59.6121C138.12 63.0617 135.965 66.0685 133.026 68.1531C129.91 70.146 126.258 71.1395 122.559 71.0002C119.446 71.0547 116.369 70.3272 113.611 68.8845V68.8845ZM130.828 49.3211C130.75 48.3641 130.478 47.4329 130.028 46.5843C129.578 45.7356 128.96 44.9872 128.211 44.3845C126.613 43.1254 124.621 42.4688 122.586 42.53C120.68 42.5338 118.834 43.1882 117.353 44.3845C115.824 45.6299 114.793 47.3815 114.448 49.3211H130.828Z" fill="#000033"/>
<path d="M153.461 68.7015C150.765 67.2286 148.528 65.0413 146.998 62.3806C145.374 59.6007 144.541 56.4305 144.591 53.2127C144.532 49.9772 145.364 46.7876 146.998 43.9925C148.509 41.2837 150.747 39.0495 153.461 37.541C156.247 36.0069 159.385 35.2238 162.567 35.2686C166.587 35.1152 170.542 36.3208 173.792 38.6903C176.744 40.9895 178.731 44.305 179.365 47.9888L178.815 48.6679L170.966 49.5037C170.5 47.8364 169.475 46.3794 168.061 45.3769C166.459 44.247 164.527 43.6776 162.567 43.7574C161.407 43.7344 160.256 43.955 159.188 44.405C158.119 44.855 157.158 45.5243 156.365 46.3694C154.675 48.2381 153.791 50.6972 153.906 53.2127C153.826 54.4884 154.002 55.7671 154.425 56.9738C154.847 58.1804 155.507 59.2905 156.365 60.2388C157.168 61.0616 158.135 61.7074 159.203 62.1348C160.271 62.5622 161.417 62.7615 162.567 62.7201C164.426 62.8017 166.262 62.2794 167.8 61.2313C169.231 60.0899 170.266 58.527 170.756 56.7649L178.606 57.6007L179.156 58.2015C178.342 61.9503 176.264 65.3066 173.268 67.7089C170.105 70.0015 166.263 71.1694 162.357 71.0261C159.242 71.0191 156.18 70.219 153.461 68.7015V68.7015Z" fill="#000033"/>
<path d="M186.09 20.276H195.718V40.2835C197.187 38.7375 198.972 37.5258 200.952 36.7312C203.046 35.813 205.31 35.3415 207.598 35.3469C210.904 35.2001 214.135 36.3536 216.599 38.5596C217.751 39.6868 218.652 41.0443 219.243 42.5431C219.834 44.0419 220.1 45.6484 220.026 47.2573V70.2947H210.397V49.6603C210.456 48.8277 210.337 47.9921 210.048 47.2086C209.76 46.4252 209.308 45.7118 208.723 45.1156C207.523 44.0526 205.955 43.4996 204.353 43.5745C202.667 43.5714 201.008 44.0033 199.539 44.8282C198.007 45.7241 196.701 46.9568 195.718 48.4327V70.2947H186.09V20.276Z" fill="#000033"/>
</g>
<defs>
<clipPath id="clip0">
<rect width="220" height="70" fill="white" transform="translate(0 0.973877)"/>
</clipPath>
</defs>
</svg>
