<svg width="328" height="68" viewBox="0 0 328 68" fill="none" xmlns="http://www.w3.org/2000/svg">
<g clip-path="url(#clip0)">
<path d="M73.9939 25.1405H80.1684L79.1079 31.2669H72.9334L68.8799 54.329H61.332L65.3855 31.2829H60.0894L61.1499 25.1565H66.4523L68.4487 14.0304H75.9967L73.9939 25.1405Z" fill="#261D56"/>
<path d="M105.055 25.1405H112.667L107.556 54.329H99.9408L100.628 50.2031C99.6097 51.6322 98.2748 52.805 96.7278 53.6293C95.1807 54.4536 93.4639 54.9067 91.7124 54.9531C84.7873 54.9531 80.983 50.6416 82.4811 42.3898L85.5348 25.1405H93.2009L90.3996 41.0327C89.5883 45.7827 92.1437 47.5336 94.8268 47.5336C97.9444 47.5336 101.5 45.7827 102.311 40.719L105.055 25.1405Z" fill="#261D56"/>
<path d="M123.77 54.329H116.158L121.269 25.1405H128.881L127.632 32.0159C130.066 26.7025 133.931 24.5164 137.237 24.5164C139.297 24.5164 140.731 24.8909 141.792 25.579L139.307 32.4544C137.62 31.6414 135.812 31.6414 135.065 31.6414C129.826 31.6414 126.894 36.2026 125.584 44.0159L123.77 54.329Z" fill="#261D56"/>
<path d="M141.795 54.329L149.716 9.2644H157.325L153.834 29.0168C156.015 26.0784 159.82 24.5164 163.736 24.5164C171.402 24.5164 176.96 30.454 175.277 39.7652C173.654 49.0156 165.981 54.9532 158.312 54.9532C154.505 54.9532 151.074 53.3304 150.007 50.392L149.384 54.329H141.795ZM158.386 47.6425C162.564 47.6425 166.62 44.4416 167.428 39.6404C168.304 34.8903 165.435 31.7663 161.193 31.7663C157.264 31.7663 152.834 34.6471 152.023 39.6404C151.151 44.5153 154.319 47.6425 158.386 47.6425V47.6425Z" fill="#261D56"/>
<path d="M180.279 39.6403C181.009 35.4228 183.197 31.5969 186.458 28.8321C189.719 26.0673 193.847 24.5396 198.119 24.5164C206.35 24.5164 212.275 30.3899 210.576 39.6403C208.893 48.8299 201.096 54.8923 192.8 54.8923C184.585 54.8923 178.595 48.8299 180.279 39.6403ZM203.044 39.6403C203.855 34.9543 200.926 32.0159 196.745 32.0159C194.597 32.0196 192.521 32.7886 190.887 34.1854C189.253 35.5822 188.169 37.5157 187.827 39.6403C187.015 44.3904 189.948 47.4536 194.126 47.4536C198.243 47.4536 202.233 44.3904 203.044 39.6403Z" fill="#261D56"/>
<path d="M223.465 42.1402C216.23 40.1397 216.294 36.5803 216.792 33.2034C217.667 28.4534 223.216 24.5164 229.016 24.5164C234.507 24.5164 239.621 27.0162 238.81 33.7028H231.575C231.76 31.5166 229.892 30.7036 228.144 30.7036C226.228 30.7036 224.401 31.3918 223.966 33.5843C223.717 34.7719 224.902 35.5849 226.586 36.0234L231.262 37.1917C237.689 39.0162 237.813 43.5934 237.312 45.9524C236.315 51.954 229.703 54.9531 223.778 54.9531C217.977 54.9531 212.799 51.3906 213.799 45.1426H220.91C220.721 47.2039 222.781 49.0156 225.586 48.8299C227.771 48.7659 229.643 47.5784 229.892 45.8916C230.326 44.3904 229.33 43.651 227.272 43.142L223.465 42.1402Z" fill="#261D56"/>
<path d="M265.258 50.5776C262.949 53.58 258.397 54.8923 255.589 54.8923C247.923 54.8923 241.682 49.0156 243.365 39.7043C245.048 30.3931 253.219 24.5164 260.892 24.5164C263.511 24.5164 267.564 25.515 269.123 28.7671L269.81 25.1405H277.419L272.308 54.329H264.696L265.258 50.5776ZM257.911 47.5784C262.029 47.5784 266.459 44.6977 267.267 39.7043C268.075 34.711 264.648 31.8271 260.658 31.8271C256.417 31.8271 252.111 34.9543 251.239 39.7043C250.367 44.4544 253.66 47.5784 257.895 47.5784H257.911Z" fill="#261D56"/>
<path d="M288.835 9.2644H296.463L288.541 54.329H280.913L288.835 9.2644Z" fill="#261D56"/>
<path d="M327.127 42.265H304.927C304.678 46.2053 307.547 48.5163 311.852 48.5163C314.781 48.5163 318.088 47.2679 319.838 44.7649C321.521 45.7667 323.332 46.8902 325.077 47.8921C321.585 52.8918 315.596 54.9531 310.233 54.9531C301.928 54.9531 296.137 48.7659 297.82 39.6403C299.503 30.3899 307.301 24.5164 315.596 24.5164C323.831 24.5164 329.382 30.3899 327.696 39.6403C327.507 40.3925 327.319 41.58 327.127 42.265ZM320.764 37.0797C320.953 33.0786 318.27 30.8924 314.526 30.8924C310.533 30.8924 307.106 33.0786 305.796 37.0797H320.764Z" fill="#261D56"/>
<path d="M39.2183 67.0619C39.2183 67.0619 28.5783 60.8779 23.4324 44.9185C11.9906 57.7059 0.996094 60.1513 0.996094 60.1513L8.17673 20.2624L31.0219 2.96509L46.3989 27.173L39.2183 67.0619Z" fill="#FF785B"/>
<path d="M39.8826 63.3779C39.8826 63.3779 29.2426 57.2002 24.0967 41.2345C12.6549 54.0378 1.6604 56.4673 1.6604 56.4673L8.84104 16.5784L30.2041 0.404527C30.3937 0.263152 30.6103 0.162269 30.8404 0.108117C31.0705 0.0539651 31.3093 0.0476964 31.5419 0.0896985C31.7746 0.131701 31.9961 0.22108 32.1929 0.35231C32.3897 0.483539 32.5575 0.653828 32.686 0.852645L47.06 23.489L39.8826 63.3779Z" fill="#FF785B"/>
<path d="M30.923 33.6292L31.5171 30.3227C32.8459 22.9608 30.4342 17.9131 29.3706 16.127C29.3119 16.0312 29.2338 15.9489 29.1413 15.8854C29.0488 15.8219 28.944 15.7787 28.8337 15.7584C28.7235 15.7382 28.6102 15.7415 28.5012 15.768C28.3923 15.7946 28.2902 15.8438 28.2015 15.9125C26.5596 17.1929 22.4806 21.0659 21.1518 28.4502L20.5545 31.7503L19.8422 32.0704C19.1804 32.346 18.598 32.7833 18.1483 33.3424C17.6986 33.9015 17.3958 34.5647 17.2676 35.2712L16.5553 39.2179C16.5353 39.334 16.5476 39.4535 16.591 39.563C16.6344 39.6726 16.7072 39.768 16.8012 39.8388C16.8959 39.9129 17.0086 39.9602 17.1277 39.976C17.2467 39.9917 17.3678 39.9753 17.4784 39.9284L19.7559 38.9682C20.3997 38.6991 21.1075 38.6224 21.7938 38.7473L23.2951 39.0194L22.9533 40.9399C22.9403 41.0243 22.9442 41.1105 22.9649 41.1934C22.9856 41.2763 23.0226 41.3542 23.0738 41.4225C23.125 41.4908 23.1894 41.5481 23.263 41.5911C23.3367 41.6342 23.4182 41.6619 23.5027 41.6729L24.7038 41.8906C24.7883 41.9073 24.8753 41.9072 24.9598 41.8902C25.0443 41.8731 25.1246 41.8396 25.1961 41.7914C25.2676 41.7433 25.3289 41.6814 25.3766 41.6094C25.4242 41.5375 25.4572 41.4568 25.4736 41.372L25.8186 39.4515L27.3167 39.7236C28.0044 39.8461 28.6422 40.1651 29.1533 40.6422L30.9549 42.3323C31.0425 42.4139 31.15 42.4711 31.2666 42.498C31.3832 42.525 31.5048 42.5208 31.6193 42.4859C31.7326 42.4523 31.8344 42.3878 31.9134 42.2997C31.9923 42.2115 32.0453 42.1031 32.0665 41.9866L32.7756 38.0399C32.8985 37.334 32.844 36.6085 32.617 35.929C32.39 35.2495 31.9977 34.6373 31.4756 34.1477L30.923 33.6292ZM26.6714 27.5124C26.2406 27.4225 25.8458 27.2072 25.5365 26.8935C25.2272 26.5797 25.0172 26.1815 24.9327 25.7487C24.8483 25.3158 24.8932 24.8677 25.0618 24.4603C25.2305 24.053 25.5153 23.7045 25.8807 23.4587C26.2461 23.2128 26.6757 23.0805 27.1158 23.0783C27.5559 23.076 27.9869 23.204 28.3547 23.4461C28.7226 23.6882 29.0109 24.0337 29.1837 24.4394C29.3564 24.845 29.4059 25.2927 29.3258 25.7263C29.2689 26.0184 29.155 26.2964 28.9907 26.5443C28.8264 26.7922 28.6149 27.0052 28.3684 27.1711C28.1218 27.337 27.845 27.4525 27.5538 27.5111C27.2626 27.5697 26.9628 27.5701 26.6714 27.5124V27.5124Z" fill="white"/>
<path d="M32.2037 8.64467C32.413 7.48257 31.6116 6.36489 30.4137 6.14826C29.2158 5.93163 28.0751 6.69808 27.8658 7.86018C27.6565 9.02229 28.4579 10.14 29.6558 10.3566C30.8537 10.5732 31.9944 9.80677 32.2037 8.64467Z" fill="white"/>
</g>
<defs>
<clipPath id="clip0">
<rect width="327" height="67" fill="white" transform="translate(0.996094 0.0620117)"/>
</clipPath>
</defs>
</svg>
